<?xml version="1.0" encoding="utf-8"?>
<!-- Uploaded to: SVG Repo, www.svgrepo.com, Generator: SVG Repo Mixer Tools -->
<svg width="800px" height="800px" viewBox="0 0 1024 1024" class="icon"  version="1.1" xmlns="http://www.w3.org/2000/svg"><path d="M10.3 200.8h1002v94H10.3z" fill="#1AC0D6" /><path d="M417.5 294.1h187.7v94H417.5zM111.7 118.6h132.7v82.2H111.7zM417.5 717h187.7v94H417.5zM234 459.1h94v187.7h-94zM696.4 459.1h94v187.7h-94zM10.3 811h1002v94H10.3z" fill="#1AC0D6" /><path d="M10.3 200.8h94V905h-94zM918.3 200.8h94V905h-94zM605.2 388h91.3v71h-91.3zM328 388h91.3v71H328zM328 646.8h91.3v71H328zM605.2 646.8h91.3v71h-91.3z" fill="#1AC0D6" /></svg>