<svg xmlns="http://www.w3.org/2000/svg" xmlns:xlink="http://www.w3.org/1999/xlink" width="500" zoomAndPan="magnify" viewBox="0 0 375 374.999991" height="500" preserveAspectRatio="xMidYMid meet" version="1.0"><defs><g/></defs><rect x="-37.5" width="450" fill="#ffffff" y="-37.499999" height="449.999989" fill-opacity="1"/><rect x="-37.5" width="450" fill="#2aa88a" y="-37.499999" height="449.999989" fill-opacity="1"/><rect x="-37.5" width="450" fill="#ffffff" y="-37.499999" height="449.999989" fill-opacity="1"/><rect x="-37.5" width="450" fill="#2aa88a" y="-37.499999" height="449.999989" fill-opacity="1"/><g fill="#fffefe" fill-opacity="1"><g transform="translate(0.0117232, 224.249985)"><g><path d="M 67.730469 -66 L 66.617188 -68.097656 L 65.257812 -70.941406 L 63.527344 -73.910156 L 61.179688 -76.503906 L 59.078125 -77.738281 L 56.605469 -79.46875 L 54.378906 -80.210938 L 52.03125 -81.078125 L 49.4375 -81.695312 L 46.472656 -81.449219 L 43.132812 -81.816406 L 40.292969 -82.3125 L 36.335938 -82.1875 L 33.988281 -82.808594 L 32.011719 -82.558594 L 28.921875 -82.3125 L 26.695312 -82.683594 L 23.730469 -82.3125 L 21.011719 -82.1875 L 17.550781 -82.3125 L 13.84375 -81.449219 L 12.359375 -79.347656 L 11.617188 -75.886719 L 11.617188 -72.054688 L 11 -68.839844 L 11 -66.121094 L 11.371094 -63.898438 L 11.492188 -61.179688 L 11.125 -57.71875 L 11.492188 -55.121094 L 11.742188 -51.660156 L 11.742188 -49.066406 L 11.617188 -45.359375 L 11.246094 -43.011719 L 11.492188 -40.785156 L 11.246094 -38.4375 L 11.371094 -36.335938 L 11.492188 -33.492188 L 11 -31.023438 L 11.125 -28.300781 L 11.125 -25.832031 L 11.492188 -23.605469 L 11.371094 -21.011719 L 11.863281 -18.664062 L 11.492188 -16.3125 L 11.492188 -13.472656 L 11.371094 -11.246094 L 11.988281 -8.527344 L 11.492188 -4.945312 L 12.234375 -2.226562 L 14.460938 -0.617188 L 17.304688 0 L 20.515625 -0.371094 L 21.875 -2.101562 L 22.742188 -5.4375 L 23.234375 -8.898438 L 22.742188 -11.742188 L 22.863281 -14.214844 L 23.359375 -16.3125 L 22.863281 -20.394531 L 23.113281 -23.976562 L 23.359375 -26.203125 L 23.234375 -29.414062 L 24.222656 -31.761719 L 26.941406 -32.875 L 28.921875 -33.121094 L 31.886719 -33 L 33.988281 -32.875 L 36.707031 -33.246094 L 40.292969 -33.121094 L 44.371094 -32.753906 L 47.089844 -33.246094 L 50.671875 -33.617188 L 54.628906 -34.605469 L 56.851562 -35.84375 L 59.449219 -37.203125 L 61.179688 -39.054688 L 62.785156 -40.539062 L 64.761719 -42.144531 L 66.246094 -44.742188 L 67.234375 -46.964844 L 68.097656 -49.191406 L 68.347656 -51.289062 L 68.46875 -53.515625 L 68.964844 -57.46875 L 68.964844 -62.660156 Z M 40.785156 -80.582031 L 41.15625 -79.71875 L 41.15625 -79.222656 L 40.660156 -79.222656 L 40.292969 -79.59375 Z M 20.394531 -76.257812 L 21.011719 -77.617188 L 22.246094 -78.109375 L 22.371094 -78.726562 L 22.371094 -79.839844 L 23.605469 -80.335938 L 24.84375 -79.964844 L 24.964844 -78.605469 L 24.347656 -77.617188 L 23.851562 -76.75 L 24.222656 -76.75 L 23.605469 -75.886719 L 22.371094 -75.390625 L 21.382812 -75.144531 L 20.394531 -75.390625 L 20.640625 -76.257812 Z M 33.492188 -80.210938 L 33.988281 -79.71875 L 33.863281 -79.46875 L 33.246094 -78.976562 L 32.753906 -79.222656 L 32.628906 -79.71875 Z M 52.773438 -76.503906 L 52.652344 -76.378906 L 53.515625 -76.628906 L 53.269531 -77.246094 L 52.898438 -78.605469 L 53.515625 -79.347656 L 54.378906 -78.605469 L 54.75 -78.605469 L 55.121094 -78.234375 L 56.359375 -77.863281 L 55.492188 -77.492188 L 55 -76.503906 L 55.121094 -76.378906 L 55.246094 -75.761719 L 54.378906 -75.515625 L 53.886719 -75.761719 L 53.886719 -75.515625 L 53.390625 -75.515625 L 52.773438 -75.636719 L 52.28125 -75.761719 L 51.660156 -75.390625 L 51.539062 -75.515625 L 51.539062 -75.019531 L 51.042969 -73.910156 L 50.550781 -73.910156 L 50.550781 -74.527344 L 50.300781 -74.527344 L 50.796875 -75.019531 L 51.042969 -75.761719 L 51.414062 -76.503906 L 51.910156 -76.75 Z M 16.808594 -78.851562 L 17.550781 -78.976562 L 19.15625 -79.222656 L 19.773438 -78.851562 L 19.773438 -77.121094 L 18.785156 -76.628906 L 17.550781 -77 L 16.808594 -77.863281 L 16.5625 -78.359375 Z M 16.191406 -78.234375 L 16.808594 -77.617188 L 16.933594 -77 L 16.191406 -76.503906 L 15.945312 -77.246094 Z M 49.929688 -77.492188 L 50.671875 -77.988281 L 51.289062 -77.246094 L 51.414062 -76.75 L 50.921875 -76.628906 L 49.929688 -77 Z M 16.5625 -75.636719 L 16.683594 -75.019531 L 16.808594 -75.390625 L 17.304688 -75.390625 L 17.671875 -75.269531 L 18.167969 -74.898438 L 18.664062 -75.269531 L 19.28125 -75.390625 L 19.652344 -75.144531 L 19.652344 -75.390625 L 20.515625 -75.019531 L 20.023438 -74.15625 L 19.898438 -73.910156 L 19.402344 -74.402344 L 18.910156 -74.03125 L 18.910156 -74.402344 L 18.414062 -74.15625 L 17.921875 -74.277344 L 17.179688 -74.402344 L 16.5625 -74.15625 L 16.4375 -74.03125 L 15.945312 -74.648438 L 15.820312 -75.390625 Z M 46.964844 -43.257812 L 44.492188 -42.515625 L 40.785156 -42.269531 L 36.460938 -42.144531 L 34.359375 -42.515625 L 31.886719 -42.761719 L 28.796875 -42.390625 L 26.941406 -42.390625 L 24.472656 -43.503906 L 22.988281 -45.851562 L 23.113281 -48.941406 L 23.113281 -51.167969 L 22.863281 -53.515625 L 22.863281 -55.863281 L 23.113281 -58.828125 L 23.359375 -61.179688 L 22.988281 -64.019531 L 23.359375 -66.617188 L 22.863281 -69.335938 L 24.222656 -71.4375 L 26.449219 -73.289062 L 28.921875 -72.796875 L 31.640625 -73.042969 L 34.113281 -72.671875 L 36.707031 -72.917969 L 44.121094 -72.671875 L 46.964844 -72.300781 L 49.191406 -71.066406 L 51.660156 -69.953125 L 52.898438 -68.222656 L 54.75 -66.617188 L 55.738281 -64.019531 L 56.480469 -61.671875 L 56.851562 -58.089844 L 56.605469 -54.503906 L 55.863281 -51.785156 L 54.875 -49.3125 L 52.15625 -46.222656 L 49.191406 -44.246094 Z M 56.234375 -71.066406 L 55.617188 -70.449219 L 55.246094 -70.695312 L 55.371094 -71.3125 L 55.617188 -71.929688 L 55.988281 -71.4375 Z M 17.921875 -70.570312 L 17.921875 -70.941406 L 18.910156 -71.808594 L 18.910156 -71.558594 L 18.785156 -70.695312 L 18.664062 -70.199219 Z M 59.324219 -71.558594 L 59.695312 -71.4375 L 60.066406 -71.4375 L 60.4375 -71.558594 L 61.300781 -71.808594 L 60.929688 -70.941406 L 60.808594 -70.078125 L 61.425781 -69.335938 L 61.425781 -68.839844 L 60.808594 -68.46875 L 60.558594 -68.097656 L 60.066406 -68.347656 L 59.820312 -68.222656 L 59.820312 -66.988281 L 59.078125 -66.492188 L 59.324219 -67.234375 L 59.324219 -67.480469 L 59.199219 -68.222656 L 58.707031 -69.089844 L 59.078125 -68.839844 L 59.695312 -68.71875 L 60.191406 -68.964844 L 59.941406 -69.828125 L 59.941406 -70.078125 L 60.191406 -70.695312 L 59.695312 -70.820312 L 59.695312 -70.324219 L 59.199219 -70.820312 L 58.582031 -71.683594 Z M 62.910156 -70.324219 L 63.03125 -70.324219 L 63.773438 -70.449219 L 63.648438 -69.457031 L 63.03125 -69.457031 L 62.414062 -69.707031 Z M 18.539062 -69.335938 L 19.402344 -68.839844 L 19.28125 -68.46875 L 18.664062 -67.730469 L 18.539062 -68.347656 Z M 64.390625 -66.988281 L 63.898438 -66.988281 L 63.03125 -66.863281 L 62.910156 -66 L 63.03125 -65.132812 L 63.402344 -64.640625 L 63.402344 -63.527344 L 62.289062 -62.785156 L 60.808594 -63.773438 L 60.4375 -64.761719 L 59.941406 -65.132812 L 60.066406 -65.257812 L 60.066406 -66 L 61.179688 -66.738281 L 61.796875 -66.988281 L 62.539062 -66.863281 L 62.289062 -67.234375 L 62.785156 -68.222656 L 63.773438 -67.730469 L 63.773438 -67.976562 L 64.640625 -67.851562 L 64.886719 -67.605469 L 65.257812 -66.863281 Z M 19.28125 -67.851562 L 20.023438 -67.851562 L 20.515625 -67.730469 L 20.269531 -67.234375 L 19.652344 -66.492188 L 19.28125 -66.738281 Z M 14.707031 -64.390625 L 14.953125 -64.761719 L 16.066406 -65.378906 L 17.425781 -65.503906 L 17.921875 -65.007812 L 17.671875 -64.886719 L 18.042969 -64.390625 L 17.796875 -63.527344 L 16.3125 -62.910156 L 14.953125 -63.15625 L 14.582031 -63.527344 L 14.335938 -64.019531 Z M 14.214844 -61.300781 L 15.203125 -61.917969 L 15.203125 -61.425781 L 15.449219 -60.558594 L 14.832031 -60.3125 L 14.089844 -61.054688 Z M 63.527344 -55.617188 L 63.527344 -55 L 63.28125 -54.628906 L 62.539062 -55 L 62.414062 -55.492188 L 61.917969 -55.371094 L 61.917969 -54.378906 L 62.167969 -53.640625 L 62.539062 -53.390625 L 61.917969 -53.019531 L 61.550781 -53.640625 L 61.054688 -53.886719 L 60.4375 -54.378906 L 59.199219 -55 L 59.199219 -55.863281 L 60.191406 -57.101562 L 60.066406 -57.101562 L 59.941406 -57.964844 L 60.808594 -57.964844 L 60.4375 -59.078125 L 59.941406 -59.449219 L 60.191406 -59.695312 L 59.695312 -60.191406 L 60.683594 -60.4375 L 62.414062 -60.3125 L 62.910156 -60.191406 L 62.910156 -58.828125 L 63.03125 -57.839844 L 63.402344 -57.46875 L 63.527344 -57.101562 L 63.402344 -56.730469 L 63.28125 -56.480469 L 63.898438 -56.234375 L 63.28125 -55.863281 Z M 13.964844 -56.851562 L 14.460938 -57.71875 L 15.324219 -56.976562 L 16.191406 -56.976562 L 16.3125 -57.59375 L 16.3125 -58.953125 L 17.179688 -59.078125 L 18.292969 -58.828125 L 18.664062 -57.71875 L 18.785156 -56.730469 L 19.527344 -56.234375 L 19.035156 -55.738281 L 18.414062 -55.371094 L 18.414062 -55.738281 L 17.671875 -55.988281 L 17.671875 -55.371094 L 17.425781 -55 L 16.5625 -54.378906 L 15.078125 -54.503906 L 14.335938 -54.75 L 14.335938 -55.617188 L 13.84375 -55.988281 Z M 18.042969 -51.539062 L 17.671875 -51.167969 L 17.671875 -50.671875 L 17.179688 -50.796875 L 16.5625 -50.425781 L 16.683594 -50.179688 L 17.054688 -49.808594 L 16.5625 -48.941406 L 16.683594 -48.941406 L 17.550781 -49.4375 L 17.921875 -49.3125 L 17.671875 -48.324219 L 17.054688 -48.324219 L 16.808594 -48.449219 L 16.066406 -47.832031 L 15.695312 -48.324219 L 15.324219 -48.941406 L 15.203125 -49.683594 L 15.203125 -50.550781 L 15.945312 -50.796875 L 15.324219 -51.167969 L 14.832031 -51.785156 L 15.820312 -52.28125 L 16.808594 -52.652344 L 17.179688 -53.019531 L 18.042969 -52.652344 L 17.796875 -52.03125 Z M 56.605469 -50.300781 L 57.839844 -50.300781 L 59.449219 -49.683594 L 60.066406 -49.3125 L 60.191406 -50.300781 L 60.3125 -50.921875 L 61.054688 -50.550781 L 61.550781 -50.550781 L 61.300781 -50.671875 L 61.300781 -51.414062 L 62.167969 -52.402344 L 62.785156 -51.414062 L 62.414062 -50.550781 L 62.539062 -49.929688 L 62.660156 -49.808594 L 61.917969 -49.4375 L 61.300781 -49.808594 L 61.300781 -49.5625 L 60.929688 -49.3125 L 60.066406 -49.3125 L 60.191406 -48.941406 L 59.695312 -48.078125 L 59.199219 -48.199219 L 58.089844 -48.199219 L 56.976562 -48.820312 Z M 19.15625 -49.929688 L 18.539062 -49.4375 L 18.042969 -49.5625 L 17.921875 -50.179688 L 18.414062 -50.671875 L 19.28125 -50.425781 Z M 17.921875 -47.089844 L 18.042969 -47.707031 L 18.664062 -47.832031 L 19.652344 -47.953125 L 19.652344 -47.335938 L 18.539062 -46.839844 Z M 61.917969 -44.492188 L 60.808594 -44.121094 L 61.179688 -43.628906 L 60.683594 -43.257812 L 59.820312 -43.628906 L 59.695312 -44 L 60.683594 -44.742188 L 60.4375 -45.976562 L 60.191406 -46.101562 L 59.820312 -45.109375 L 59.695312 -44.742188 L 59.078125 -44.863281 L 59.199219 -44.617188 L 58.460938 -44.371094 L 58.210938 -44.492188 L 57.59375 -44.988281 L 57.222656 -45.480469 L 57.347656 -45.976562 L 57.46875 -46.839844 L 58.460938 -46.839844 L 58.953125 -46.71875 L 59.078125 -46.59375 L 59.570312 -47.210938 L 60.066406 -46.71875 L 60.3125 -46.839844 L 60.808594 -46.71875 L 62.042969 -46.59375 L 62.910156 -46.347656 L 63.15625 -45.234375 Z M 17.796875 -45.730469 L 17.179688 -45.730469 L 16.683594 -46.222656 L 17.179688 -47.089844 L 18.167969 -46.59375 L 18.292969 -46.101562 Z M 56.359375 -44.742188 L 55.617188 -44.246094 L 55.121094 -44.492188 L 55.246094 -45.234375 L 55.121094 -46.347656 L 55 -46.59375 L 55.863281 -46.964844 L 56.109375 -46.59375 L 56.359375 -45.730469 L 56.605469 -45.109375 Z M 16.808594 -43.503906 L 16.5625 -42.886719 L 16.683594 -42.269531 L 15.820312 -41.898438 L 15.695312 -42.269531 L 15.695312 -42.515625 L 15.945312 -43.503906 L 15.820312 -44.246094 L 15.820312 -45.234375 L 16.191406 -45.605469 L 16.808594 -45.359375 L 16.933594 -44.742188 L 16.808594 -44.246094 L 16.933594 -44.121094 L 17.425781 -44.617188 L 18.167969 -44.371094 L 17.796875 -43.628906 L 17.425781 -43.011719 L 16.683594 -43.628906 Z M 52.773438 -43.75 L 52.28125 -44.492188 L 52.898438 -44.492188 L 53.640625 -44.246094 L 53.886719 -44 L 53.390625 -43.382812 Z M 22.742188 -38.4375 L 22.371094 -38.066406 L 22.125 -38.929688 L 21.628906 -39.425781 L 21.011719 -39.300781 L 20.269531 -39.796875 L 20.269531 -40.660156 L 19.652344 -41.28125 L 20.023438 -42.515625 L 21.011719 -43.382812 L 22.492188 -43.011719 L 22.742188 -41.773438 L 23.851562 -41.652344 L 24.101562 -40.414062 L 23.976562 -40.292969 L 23.976562 -40.042969 L 23.359375 -39.550781 L 22.492188 -39.179688 Z M 50.300781 -41.03125 L 50.054688 -41.527344 L 50.671875 -42.390625 L 51.414062 -41.652344 L 51.414062 -41.28125 L 51.042969 -40.910156 Z M 54.257812 -40.910156 L 53.886719 -41.15625 L 54.011719 -41.773438 L 54.503906 -42.390625 L 54.628906 -41.402344 L 55 -41.03125 Z M 56.109375 -39.671875 L 55.121094 -40.042969 L 54.875 -40.785156 L 55.617188 -41.28125 L 56.234375 -40.660156 L 56.480469 -39.921875 Z M 52.652344 -38.929688 L 51.785156 -38.191406 L 51.414062 -38.929688 L 51.539062 -39.179688 L 51.660156 -39.550781 L 51.414062 -40.785156 L 51.785156 -41.15625 L 52.652344 -40.167969 L 52.652344 -39.550781 L 52.773438 -38.808594 Z M 49.191406 -39.921875 L 48.820312 -39.671875 L 49.066406 -40.414062 L 49.5625 -40.414062 L 50.179688 -40.539062 L 50.300781 -39.671875 Z M 27.683594 -38.4375 L 27.066406 -38.683594 L 26.203125 -38.4375 L 26.574219 -39.550781 L 27.5625 -40.042969 L 27.933594 -39.300781 Z M 15.324219 -38.3125 L 15.324219 -38.929688 L 15.695312 -39.300781 L 16.5625 -39.300781 L 16.4375 -38.808594 L 16.191406 -38.066406 Z M 44.988281 -38.066406 L 44.742188 -37.449219 L 44.863281 -36.707031 L 43.628906 -37.449219 L 43.75 -38.066406 L 44.246094 -38.929688 L 44.371094 -39.179688 L 45.234375 -39.300781 L 45.480469 -38.808594 Z M 32.753906 -38.3125 L 32.132812 -38.3125 L 31.640625 -38.683594 L 31.640625 -38.929688 L 32.132812 -39.054688 L 32.875 -39.054688 Z M 15.203125 -35.472656 L 14.582031 -36.089844 L 14.335938 -36.707031 L 14.582031 -37.570312 L 14.214844 -38.191406 L 15.078125 -37.941406 L 15.324219 -37.695312 L 15.203125 -37.324219 L 15.203125 -36.335938 L 15.574219 -36.089844 Z M 17.550781 -38.191406 L 18.292969 -38.066406 L 17.796875 -37.078125 L 17.550781 -37.078125 L 16.933594 -37.449219 L 16.5625 -37.695312 Z M 24.222656 -37.078125 L 23.605469 -37.078125 L 22.617188 -37.570312 L 22.863281 -38.066406 L 23.234375 -38.066406 L 24.222656 -37.570312 Z M 19.28125 -33.371094 L 19.035156 -34.234375 L 19.402344 -34.730469 L 18.539062 -34.359375 L 18.292969 -34.976562 L 18.167969 -35.59375 L 18.664062 -36.089844 L 19.035156 -35.101562 L 19.402344 -34.730469 L 19.527344 -34.976562 L 20.269531 -34.113281 L 20.394531 -33.492188 L 20.144531 -33.246094 Z M 22.988281 -34.976562 L 22.492188 -34.730469 L 21.628906 -34.480469 L 21.753906 -34.851562 L 21.132812 -34.851562 L 20.269531 -34.976562 L 20.515625 -35.101562 L 21.132812 -35.84375 L 21.382812 -35.347656 L 21.875 -35.84375 L 22 -36.089844 L 22.988281 -35.347656 Z M 18.042969 -33.988281 L 17.671875 -33.246094 L 17.179688 -33.492188 L 16.933594 -33.246094 L 16.808594 -34.113281 L 17.550781 -34.851562 Z M 15.449219 -34.113281 L 15.449219 -33.617188 L 15.078125 -33.371094 L 14.582031 -34.113281 L 14.953125 -34.480469 Z M 17.054688 -28.921875 L 17.550781 -29.664062 L 18.167969 -29.042969 L 17.796875 -28.425781 L 17.304688 -28.300781 L 16.808594 -28.671875 Z M 18.167969 -27.4375 L 18.167969 -28.796875 L 18.910156 -28.300781 L 19.402344 -27.3125 L 18.664062 -27.191406 Z M 15.945312 -26.449219 L 16.066406 -27.066406 L 15.695312 -27.5625 L 15.820312 -28.179688 L 16.3125 -28.550781 L 16.4375 -28.054688 L 16.808594 -27.3125 L 16.5625 -27.066406 L 16.191406 -26.203125 Z M 15.574219 -23.976562 L 14.832031 -23.484375 L 14.089844 -23.730469 L 14.214844 -24.222656 L 14.832031 -24.71875 L 15.945312 -23.976562 Z M 21.011719 -21.382812 L 19.773438 -21.011719 L 19.15625 -20.515625 L 19.527344 -19.898438 L 18.664062 -20.023438 L 17.921875 -19.773438 L 17.921875 -20.515625 L 18.539062 -21.257812 L 18.414062 -21.875 L 18.539062 -22.617188 L 18.042969 -22.863281 L 17.425781 -22.492188 L 16.3125 -22.617188 L 16.808594 -23.730469 L 17.671875 -23.976562 L 18.167969 -23.359375 L 18.785156 -23.730469 L 20.269531 -23.484375 L 21.257812 -22.617188 Z M 15.203125 -19.527344 L 14.089844 -20.144531 L 14.214844 -21.011719 L 15.078125 -21.011719 L 15.324219 -20.761719 L 15.574219 -19.898438 Z M 20.023438 -17.425781 L 19.035156 -17.921875 L 18.910156 -18.414062 L 20.023438 -19.15625 L 21.132812 -18.539062 L 21.257812 -17.425781 Z M 18.292969 -6.304688 L 17.179688 -6.304688 L 16.4375 -6.675781 L 16.5625 -6.921875 L 17.550781 -7.167969 L 18.292969 -7.042969 Z M 18.292969 -6.304688 "/></g></g></g><g fill="#fffefe" fill-opacity="1"><g transform="translate(73.916141, 224.249985)"><g><path d="M 70.941406 -1.730469 L 71.558594 -4.203125 L 71.3125 -7.539062 L 70.695312 -10.257812 L 69.953125 -13.101562 L 67.976562 -17.796875 L 67.234375 -19.527344 L 66.863281 -22 L 65.75 -24.59375 L 64.886719 -26.941406 L 64.269531 -29.414062 L 63.402344 -31.761719 L 62.660156 -33.863281 L 61.917969 -36.210938 L 61.179688 -38.929688 L 60.683594 -41.15625 L 59.820312 -43.628906 L 58.460938 -46.101562 L 58.210938 -48.324219 L 57.46875 -50.300781 L 56.109375 -52.898438 L 55.863281 -55.371094 L 54.75 -57.347656 L 54.378906 -60.191406 L 53.390625 -62.539062 L 52.652344 -64.886719 L 51.785156 -67.109375 L 51.167969 -69.335938 L 50.550781 -71.808594 L 49.5625 -75.269531 L 46.964844 -79.222656 L 44.121094 -81.324219 L 42.019531 -82.1875 L 38.808594 -82.808594 L 35.347656 -82.3125 L 33.742188 -81.570312 L 32.132812 -80.335938 L 30.03125 -78.109375 L 29.042969 -75.269531 L 27.3125 -71.929688 L 26.941406 -69.457031 L 26.203125 -66.988281 L 25.707031 -65.007812 L 24.347656 -62.167969 L 23.976562 -59.820312 L 22.742188 -57.59375 L 22.371094 -55.121094 L 21.382812 -53.019531 L 20.640625 -50.796875 L 19.898438 -48.199219 L 19.28125 -45.605469 L 17.550781 -40.910156 L 16.3125 -38.5625 L 15.820312 -36.089844 L 14.953125 -33.863281 L 14.335938 -31.269531 L 13.71875 -28.921875 L 12.855469 -26.941406 L 12.234375 -24.222656 L 10.875 -21.628906 L 10.382812 -19.527344 L 9.765625 -17.425781 L 9.144531 -14.832031 L 8.15625 -12.730469 L 7.414062 -10.257812 L 6.550781 -7.042969 L 6.054688 -3.707031 L 7.539062 -1.359375 L 11.371094 0.496094 L 14.832031 -0.371094 L 16.683594 -2.964844 L 17.671875 -6.921875 L 18.292969 -8.652344 L 19.402344 -11 L 20.144531 -13.222656 L 20.640625 -15.574219 L 21.382812 -18.167969 L 21.628906 -20.515625 L 23.851562 -22.742188 L 27.066406 -24.347656 L 30.773438 -24.222656 L 34.480469 -24.347656 L 37.203125 -24.472656 L 39.671875 -24.222656 L 42.144531 -24.472656 L 46.347656 -24.222656 L 48.449219 -24.347656 L 52.898438 -22.742188 L 55 -20.640625 L 55.617188 -18.414062 L 56.605469 -16.066406 L 57.101562 -13.71875 L 57.347656 -11.371094 L 58.210938 -9.269531 L 59.199219 -6.550781 L 60.558594 -3.585938 L 62.289062 -0.742188 L 65.875 0.496094 L 68.71875 0.246094 Z M 41.898438 -74.773438 L 41.402344 -75.144531 L 41.15625 -75.761719 L 40.785156 -76.257812 L 39.921875 -76.503906 L 40.539062 -77.863281 L 41.898438 -78.234375 L 43.257812 -77.492188 L 42.886719 -76.75 L 42.144531 -76.378906 L 42.390625 -75.636719 L 42.144531 -74.773438 Z M 37.820312 -75.886719 L 37.078125 -76.132812 L 37.449219 -76.875 L 37.449219 -77.492188 L 38.3125 -77.367188 L 38.5625 -76.132812 Z M 44.371094 -75.761719 L 43.628906 -76.378906 L 43.628906 -77.367188 L 44.246094 -77.246094 L 44.988281 -76.628906 Z M 33.246094 -74.648438 L 32.257812 -75.144531 L 32.628906 -76.132812 L 33.246094 -76.503906 L 33.246094 -75.761719 L 33.617188 -75.761719 L 34.359375 -75.886719 L 34.976562 -75.636719 L 34.976562 -75.269531 L 34.359375 -75.144531 L 33.863281 -75.019531 L 33.742188 -75.144531 Z M 39.054688 -74.898438 L 38.683594 -75.019531 L 38.4375 -75.886719 L 39.300781 -76.378906 L 39.921875 -76.007812 L 39.796875 -75.144531 Z M 43.011719 -71.1875 L 42.390625 -71.4375 L 42.269531 -71.808594 L 42.390625 -72.179688 L 42.640625 -73.042969 L 43.875 -73.910156 L 45.109375 -72.796875 L 45.851562 -71.683594 L 44.121094 -70.941406 Z M 41.402344 -72.300781 L 41.28125 -72.671875 L 41.03125 -73.660156 L 41.773438 -73.785156 L 42.515625 -73.289062 L 42.144531 -72.546875 Z M 33.121094 -71.3125 L 32.132812 -71.808594 L 32.132812 -72.179688 L 32.011719 -72.300781 L 31.390625 -72.054688 L 31.023438 -72.300781 L 31.269531 -73.414062 L 31.390625 -73.539062 L 32.132812 -72.917969 L 32.753906 -72.671875 L 33.246094 -72.671875 L 33.863281 -72.054688 Z M 32.503906 -33.492188 L 29.785156 -33.371094 L 27.808594 -34.851562 L 27.191406 -37.078125 L 28.179688 -39.179688 L 28.425781 -41.773438 L 29.539062 -43.875 L 30.527344 -46.59375 L 31.144531 -48.695312 L 31.761719 -51.414062 L 32.257812 -53.886719 L 32.628906 -55.617188 L 33.742188 -57.964844 L 34.234375 -60.929688 L 35.347656 -63.03125 L 35.84375 -65.132812 L 36.582031 -67.976562 L 37.449219 -70.695312 L 38.191406 -72.917969 L 39.671875 -70.695312 L 40.292969 -67.730469 L 40.910156 -65.628906 L 41.652344 -63.15625 L 42.640625 -60.558594 L 43.75 -56.976562 L 44.988281 -53.640625 L 45.730469 -51.042969 L 45.730469 -48.820312 L 46.59375 -46.472656 L 48.570312 -41.773438 L 49.066406 -39.054688 L 49.683594 -37.324219 L 49.3125 -35.101562 L 46.964844 -33.492188 L 44.863281 -33.742188 L 42.515625 -33.988281 L 39.921875 -33.492188 L 37.078125 -33.742188 L 34.851562 -33.863281 Z M 46.59375 -70.078125 L 46.101562 -70.199219 L 46.347656 -70.941406 L 46.839844 -70.695312 L 46.964844 -70.570312 Z M 31.640625 -68.839844 L 32.503906 -69.089844 L 32.132812 -69.828125 L 33.121094 -69.828125 L 33.617188 -69.582031 L 33.617188 -69.210938 L 33.371094 -68.59375 L 32.503906 -68.59375 L 32.628906 -67.359375 L 31.761719 -66.988281 L 31.144531 -67.480469 L 31.023438 -68.222656 L 30.28125 -68.59375 L 29.539062 -68.71875 L 30.03125 -69.582031 L 30.28125 -69.953125 L 31.023438 -69.707031 L 31.515625 -69.335938 Z M 46.59375 -66.246094 L 45.605469 -66.863281 L 45.605469 -66.988281 L 46.347656 -67.480469 L 45.605469 -67.605469 L 45.851562 -68.59375 L 46.222656 -68.839844 L 47.460938 -69.089844 L 47.335938 -67.976562 L 46.964844 -67.480469 L 47.460938 -67.234375 L 47.335938 -66.371094 Z M 44.371094 -66.246094 L 43.132812 -66.492188 L 43.132812 -67.109375 L 43.628906 -67.730469 L 43.628906 -68.59375 L 44.121094 -68.964844 L 45.109375 -68.46875 L 44.617188 -67.730469 L 44.742188 -67.359375 L 44.742188 -66.738281 Z M 31.761719 -63.898438 L 31.515625 -64.144531 L 31.269531 -64.269531 L 31.269531 -65.132812 L 31.144531 -65.875 L 30.527344 -65.378906 L 29.664062 -64.761719 L 29.664062 -64.886719 L 29.539062 -63.898438 L 28.425781 -64.144531 L 28.796875 -65.257812 L 28.054688 -65.75 L 27.4375 -66.863281 L 29.042969 -67.359375 L 30.402344 -67.109375 L 31.023438 -66.492188 L 32.132812 -66.121094 L 32.011719 -65.007812 L 32.132812 -64.761719 L 32.257812 -63.773438 Z M 45.359375 -63.773438 L 44.371094 -64.019531 L 44.492188 -64.761719 L 44.988281 -65.257812 L 44.617188 -65.75 L 45.109375 -66.246094 L 46.222656 -65.132812 L 45.851562 -64.515625 L 46.222656 -63.773438 Z M 47.953125 -65.132812 L 47.089844 -65.378906 L 47.089844 -65.503906 L 47.832031 -66.121094 L 48.570312 -65.875 L 48.199219 -65.007812 Z M 30.28125 -62.539062 L 29.785156 -62.660156 L 29.785156 -63.28125 L 30.402344 -64.019531 L 31.269531 -63.648438 L 31.144531 -62.910156 Z M 29.167969 -61.425781 L 28.921875 -61.671875 L 28.671875 -62.414062 L 29.414062 -62.785156 L 29.785156 -62.042969 L 30.28125 -61.425781 Z M 48.078125 -60.066406 L 46.964844 -60.3125 L 47.089844 -60.929688 L 47.582031 -61.425781 L 47.210938 -62.289062 L 47.582031 -62.167969 L 48.078125 -62.167969 L 48.820312 -62.289062 L 49.191406 -62.785156 L 49.191406 -61.917969 L 49.5625 -61.300781 L 48.941406 -61.179688 L 48.695312 -61.550781 L 48.324219 -61.550781 L 48.449219 -61.179688 L 48.449219 -60.066406 Z M 49.191406 -55.121094 L 48.570312 -55.492188 L 48.324219 -55.492188 L 47.582031 -54.75 L 46.964844 -55.246094 L 46.964844 -55.988281 L 47.707031 -56.480469 L 48.449219 -56.234375 L 48.820312 -56.480469 L 48.941406 -57.347656 L 48.820312 -57.839844 L 48.820312 -59.570312 L 49.5625 -60.191406 L 49.683594 -61.054688 L 50.550781 -61.179688 L 51.042969 -60.929688 L 50.796875 -60.191406 L 50.671875 -60.066406 L 51.660156 -59.695312 L 51.660156 -58.582031 L 51.042969 -57.964844 L 51.785156 -57.347656 L 52.03125 -56.480469 L 51.414062 -56.359375 L 50.921875 -56.851562 L 50.796875 -57.222656 L 50.179688 -57.59375 L 49.808594 -57.347656 L 49.3125 -56.730469 L 49.808594 -55.988281 L 49.5625 -55.492188 Z M 47.582031 -57.347656 L 47.210938 -58.335938 L 47.582031 -59.199219 L 48.199219 -58.335938 L 48.078125 -57.46875 Z M 29.414062 -56.480469 L 28.921875 -56.851562 L 28.550781 -57.71875 L 29.292969 -57.839844 L 30.03125 -56.976562 L 29.785156 -56.730469 Z M 24.222656 -52.652344 L 23.359375 -52.898438 L 23.851562 -53.515625 L 24.472656 -54.132812 L 24.964844 -53.640625 L 25.335938 -52.773438 Z M 51.660156 -51.167969 L 51.289062 -51.910156 L 50.796875 -53.019531 L 50.796875 -53.390625 L 51.660156 -53.640625 L 51.910156 -53.390625 L 52.03125 -53.019531 L 52.15625 -52.15625 L 52.527344 -51.785156 Z M 26.820312 -50.300781 L 26.449219 -50.300781 L 26.449219 -51.167969 L 26.574219 -51.414062 L 26.941406 -50.796875 L 27.4375 -49.929688 Z M 22.863281 -48.695312 L 22.617188 -49.3125 L 22.617188 -49.929688 L 23.113281 -50.054688 L 23.359375 -50.054688 L 23.605469 -49.683594 L 24.71875 -50.425781 L 24.84375 -49.808594 L 25.210938 -49.066406 L 24.71875 -48.941406 L 24.472656 -47.953125 L 24.222656 -47.832031 L 23.605469 -47.832031 L 23.484375 -48.449219 L 24.101562 -48.941406 L 23.730469 -49.3125 Z M 51.289062 -47.582031 L 51.167969 -47.707031 L 50.796875 -48.449219 L 51.539062 -49.3125 L 52.28125 -49.066406 L 51.660156 -48.199219 Z M 54.257812 -46.472656 L 53.269531 -46.59375 L 53.640625 -47.335938 L 53.640625 -47.832031 L 53.515625 -48.570312 L 54.011719 -49.066406 L 54.628906 -48.820312 L 54.503906 -47.582031 L 54.875 -47.210938 L 54.628906 -46.59375 Z M 50.179688 -45.109375 L 49.4375 -45.480469 L 49.5625 -46.59375 L 50.550781 -46.472656 L 51.042969 -45.730469 L 51.660156 -45.480469 L 52.15625 -45.359375 L 52.15625 -45.234375 L 52.28125 -46.347656 L 53.269531 -45.851562 L 53.390625 -45.359375 L 53.390625 -45.109375 L 53.515625 -45.109375 L 53.886719 -45.359375 L 54.503906 -45.359375 L 54.875 -44.617188 L 54.011719 -44.246094 L 53.515625 -44.121094 L 53.019531 -44.246094 L 52.773438 -43.875 L 52.15625 -44.246094 L 51.289062 -43.628906 L 50.550781 -45.109375 Z M 22.246094 -43.011719 L 21.628906 -42.886719 L 21.628906 -43.628906 L 21.257812 -43.75 L 21.011719 -44.617188 L 21.753906 -45.480469 L 22.371094 -44.492188 L 22.617188 -43.875 L 22.246094 -43.875 L 22.371094 -43.382812 Z M 56.480469 -41.402344 L 55.988281 -41.773438 L 56.109375 -42.269531 L 56.359375 -42.515625 L 56.730469 -42.144531 L 56.976562 -41.652344 Z M 55.246094 -40.414062 L 54.875 -40.167969 L 54.503906 -41.28125 L 55.492188 -41.527344 L 55.988281 -41.03125 L 55.617188 -40.167969 Z M 52.773438 -37.820312 L 51.289062 -38.5625 L 51.539062 -39.671875 L 53.144531 -40.414062 L 54.257812 -39.550781 L 54.378906 -39.054688 L 54.75 -38.929688 L 54.628906 -38.4375 L 53.515625 -37.820312 Z M 21.628906 -37.941406 L 21.132812 -37.941406 L 21.011719 -39.179688 L 21.753906 -39.054688 L 22.617188 -38.929688 L 22.617188 -38.4375 Z M 21.011719 -34.113281 L 19.773438 -34.480469 L 20.023438 -35.101562 L 20.394531 -35.84375 L 21.382812 -35.101562 Z M 57.59375 -33.863281 L 56.730469 -34.359375 L 57.101562 -35.347656 L 57.964844 -35.472656 L 58.089844 -35.472656 L 58.210938 -34.730469 Z M 55.121094 -31.515625 L 54.503906 -31.761719 L 54.75 -32.382812 L 54.875 -33.121094 L 54.75 -34.113281 L 55.246094 -34.113281 L 55.492188 -33.246094 L 55.738281 -33.246094 L 55.738281 -32.503906 L 55.863281 -31.761719 Z M 21.753906 -33 L 21.011719 -33.742188 L 21.628906 -33.742188 L 22.371094 -33.617188 L 22.371094 -33.492188 Z M 16.933594 -30.527344 L 16.066406 -30.402344 L 16.4375 -31.144531 L 16.683594 -31.390625 L 17.796875 -31.390625 L 17.425781 -30.773438 Z M 24.59375 -30.15625 L 23.730469 -31.269531 L 24.222656 -31.390625 L 24.84375 -31.023438 L 24.964844 -30.652344 Z M 60.191406 -29.292969 L 59.324219 -29.664062 L 59.078125 -30.03125 L 60.4375 -31.144531 L 60.683594 -30.898438 L 60.808594 -29.539062 Z M 35.472656 -29.292969 L 34.605469 -29.539062 L 35.101562 -29.910156 L 35.347656 -30.898438 L 35.84375 -30.402344 L 35.84375 -29.664062 Z M 55.371094 -29.167969 L 54.257812 -29.664062 L 54.132812 -30.402344 L 54.875 -30.898438 L 56.359375 -30.28125 L 55.988281 -29.910156 Z M 20.640625 -29.042969 L 19.773438 -29.539062 L 20.394531 -29.910156 L 20.761719 -30.527344 L 21.132812 -30.03125 L 21.503906 -29.167969 Z M 18.042969 -28.796875 L 17.550781 -29.167969 L 17.671875 -29.910156 L 18.167969 -30.402344 L 18.910156 -30.402344 L 19.035156 -29.167969 Z M 57.839844 -29.292969 L 56.730469 -29.414062 L 56.730469 -30.402344 L 57.839844 -30.402344 L 57.964844 -30.15625 L 57.964844 -29.910156 Z M 25.210938 -27.933594 L 24.71875 -28.179688 L 24.472656 -29.414062 L 25.832031 -29.785156 L 26.820312 -29.167969 L 26.324219 -28.425781 Z M 30.527344 -27.808594 L 30.03125 -28.300781 L 30.03125 -28.671875 L 30.28125 -29.167969 L 31.269531 -28.550781 L 31.023438 -28.054688 Z M 51.539062 -28.179688 L 51.042969 -27.933594 L 50.550781 -28.796875 L 51.660156 -28.921875 L 51.910156 -28.921875 Z M 59.078125 -26.820312 L 58.460938 -27.3125 L 58.335938 -27.933594 L 58.460938 -27.933594 L 59.449219 -27.5625 L 59.324219 -26.574219 Z M 16.808594 -25.335938 L 16.5625 -25.582031 L 16.4375 -26.574219 L 16.933594 -27.191406 L 17.425781 -26.695312 L 16.933594 -25.832031 Z M 13.347656 -18.910156 L 12.730469 -19.527344 L 12.855469 -20.144531 L 13.347656 -20.761719 L 13.964844 -19.898438 L 14.214844 -19.28125 Z M 15.820312 -18.292969 L 14.953125 -18.042969 L 15.078125 -18.539062 L 15.695312 -19.15625 L 16.191406 -18.910156 L 16.4375 -18.414062 Z M 13.59375 -11.742188 L 11.492188 -12.605469 L 11.742188 -13.964844 L 12.855469 -14.089844 L 14.089844 -13.347656 L 14.832031 -12.234375 Z M 59.820312 -11.742188 L 59.449219 -11.742188 L 59.820312 -12.730469 L 60.191406 -13.101562 L 60.929688 -12.976562 L 60.808594 -12.359375 Z M 65.378906 -10.503906 L 64.144531 -11.125 L 64.761719 -11.492188 L 65.132812 -11.863281 L 65.257812 -11.492188 L 65.628906 -11.125 Z M 65.378906 -10.503906 "/></g></g></g><g fill="#fffefe" fill-opacity="1"><g transform="translate(151.898901, 224.249985)"><g><path d="M 68.59375 -61.917969 L 67.851562 -64.390625 L 67.234375 -66.492188 L 66.617188 -68.71875 L 65.378906 -70.941406 L 64.144531 -73.414062 L 61.917969 -74.402344 L 60.4375 -76.257812 L 58.460938 -78.234375 L 55.738281 -78.976562 L 53.640625 -79.46875 L 51.539062 -80.582031 L 48.820312 -80.953125 L 45.109375 -82.066406 L 36.210938 -81.816406 L 33.617188 -81.941406 L 31.144531 -82.3125 L 28.796875 -82.3125 L 26.324219 -82.1875 L 23.605469 -82.558594 L 21.011719 -82.558594 L 17.179688 -82.1875 L 13.222656 -81.199219 L 11.742188 -79.59375 L 11.617188 -76.007812 L 11 -72.671875 L 11 -70.199219 L 11.125 -67.851562 L 11 -65.257812 L 11.371094 -62.660156 L 11 -60.191406 L 11.492188 -57.46875 L 11.125 -55.617188 L 11.742188 -53.269531 L 11.246094 -50.179688 L 11.125 -48.078125 L 11.492188 -45.480469 L 11 -43.132812 L 11.371094 -40.785156 L 11.371094 -38.4375 L 11.246094 -35.71875 L 11 -33 L 11.371094 -30.898438 L 11.246094 -28.300781 L 11.742188 -25.832031 L 11.246094 -23.359375 L 11 -20.640625 L 11 -18.664062 L 10.875 -15.945312 L 11.246094 -13.964844 L 11.246094 -8.898438 L 11.371094 -5.5625 L 11.742188 -1.855469 L 13.59375 -0.246094 L 16.933594 0.617188 L 20.023438 0 L 21.628906 -1.484375 L 22.617188 -5.316406 L 23.113281 -8.652344 L 22.742188 -11.371094 L 22.988281 -13.964844 L 23.234375 -15.945312 L 22.742188 -18.910156 L 22.742188 -21.628906 L 23.234375 -23.605469 L 22.742188 -26.078125 L 23.113281 -28.550781 L 23.851562 -31.023438 L 26.324219 -32.382812 L 28.425781 -32.257812 L 31.023438 -32.132812 L 33.121094 -32.382812 L 35.71875 -32.382812 L 37.941406 -32.503906 L 38.808594 -31.515625 L 39.550781 -29.664062 L 41.28125 -27.808594 L 42.390625 -25.460938 L 43.503906 -22.863281 L 45.109375 -21.011719 L 45.730469 -18.539062 L 47.089844 -16.683594 L 48.570312 -14.335938 L 49.4375 -12.234375 L 50.796875 -9.640625 L 52.15625 -7.785156 L 53.761719 -5.191406 L 56.234375 -1.730469 L 60.3125 0.617188 L 63.402344 -0.371094 L 65.132812 -1.730469 L 66.246094 -4.945312 L 65.257812 -8.28125 L 63.898438 -11 L 62.660156 -13.71875 L 60.929688 -15.695312 L 59.695312 -17.671875 L 58.953125 -19.652344 L 57.46875 -22.246094 L 56.234375 -24.347656 L 54.75 -26.449219 L 54.011719 -28.671875 L 52.652344 -30.527344 L 51.042969 -32.503906 L 51.042969 -33.863281 L 54.75 -34.976562 L 57.964844 -36.707031 L 61.054688 -38.929688 L 62.910156 -41.15625 L 64.390625 -42.640625 L 66 -44.742188 L 66.863281 -47.210938 L 67.359375 -49.683594 L 68.097656 -52.03125 L 68.347656 -54.628906 L 68.71875 -58.089844 Z M 27.5625 -79.964844 L 28.300781 -80.335938 L 28.921875 -79.71875 L 28.671875 -78.605469 L 28.179688 -78.726562 L 27.5625 -79.347656 Z M 25.335938 -79.46875 L 25.832031 -79.71875 L 26.203125 -79.097656 L 25.953125 -78.726562 L 25.335938 -78.726562 Z M 17.179688 -78.726562 L 17.796875 -78.726562 L 17.671875 -78.605469 L 18.664062 -78.480469 L 19.15625 -78.480469 L 19.402344 -77.617188 L 18.539062 -77.617188 L 17.921875 -77.738281 L 17.671875 -77.863281 L 17.425781 -77.492188 L 16.933594 -78.109375 L 16.5625 -78.851562 Z M 47.089844 -78.726562 L 48.078125 -77.988281 L 48.695312 -77.617188 L 48.695312 -76.628906 L 47.832031 -75.886719 L 46.347656 -75.886719 L 45.605469 -76.503906 L 45.234375 -78.109375 Z M 49.683594 -77.246094 L 50.671875 -77.863281 L 51.660156 -77.367188 L 51.167969 -76.132812 L 50.671875 -76.132812 L 49.4375 -76.75 Z M 20.144531 -75.886719 L 20.023438 -75.636719 L 20.640625 -76.132812 L 20.886719 -77.121094 L 21.753906 -77.617188 L 22.988281 -77.617188 L 24.222656 -76.875 L 23.730469 -76.503906 L 23.234375 -75.761719 L 21.875 -75.144531 L 20.269531 -75.269531 L 19.28125 -75.019531 L 19.28125 -75.515625 L 19.035156 -76.007812 L 19.652344 -76.378906 Z M 31.269531 -77.617188 L 31.269531 -77.367188 L 31.640625 -76.628906 L 30.773438 -76.378906 L 30.28125 -76.132812 L 30.03125 -76.875 Z M 52.898438 -76.007812 L 53.640625 -75.761719 L 53.886719 -76.132812 L 54.257812 -76.257812 L 54.503906 -74.898438 L 54.257812 -75.019531 L 53.761719 -75.390625 L 53.640625 -75.269531 L 52.773438 -74.773438 L 52.527344 -75.019531 L 52.15625 -76.132812 Z M 14.953125 -74.898438 L 15.574219 -75.144531 L 16.4375 -75.019531 L 16.683594 -74.898438 L 16.933594 -75.269531 L 17.671875 -74.527344 L 17.921875 -75.019531 L 18.664062 -75.144531 L 18.785156 -74.402344 L 18.664062 -74.03125 L 18.167969 -73.785156 L 17.671875 -74.15625 L 17.921875 -73.910156 L 17.054688 -74.03125 L 16.5625 -73.660156 L 16.4375 -73.785156 L 15.695312 -73.910156 L 14.953125 -74.277344 Z M 55.492188 -74.773438 L 55.738281 -74.648438 L 55.988281 -74.15625 L 55.492188 -73.785156 L 55.246094 -74.277344 L 54.875 -74.773438 Z M 53.640625 -47.953125 L 51.660156 -45.851562 L 50.054688 -44.371094 L 47.953125 -43.503906 L 45.976562 -42.515625 L 43.875 -42.019531 L 37.570312 -41.898438 L 33.988281 -41.652344 L 31.515625 -41.898438 L 29.167969 -41.652344 L 26.449219 -41.652344 L 24.222656 -43.132812 L 22.988281 -45.359375 L 22.988281 -47.832031 L 22.492188 -49.929688 L 22.742188 -52.527344 L 22.617188 -55.121094 L 23.113281 -57.101562 L 23.234375 -59.449219 L 22.742188 -61.917969 L 22.617188 -64.515625 L 22.863281 -67.109375 L 22.492188 -69.210938 L 23.976562 -71.3125 L 26.574219 -72.671875 L 31.269531 -72.671875 L 33.371094 -73.167969 L 39.425781 -72.546875 L 43.257812 -73.042969 L 46.222656 -72.054688 L 48.570312 -71.4375 L 50.796875 -70.078125 L 52.652344 -68.839844 L 54.257812 -66.617188 L 55.371094 -64.269531 L 56.234375 -61.796875 L 56.109375 -58.210938 L 56.234375 -54.378906 L 55.246094 -52.15625 L 54.503906 -50.425781 Z M 55.738281 -72.300781 L 56.730469 -72.300781 L 57.839844 -71.4375 L 57.839844 -70.820312 L 58.089844 -70.199219 L 58.582031 -69.582031 L 58.582031 -69.457031 L 57.964844 -68.964844 L 57.46875 -68.839844 L 56.976562 -69.828125 L 56.851562 -69.953125 L 55.121094 -70.449219 L 54.75 -71.3125 L 54.503906 -70.820312 L 54.628906 -69.953125 L 54.132812 -69.953125 L 53.640625 -70.199219 L 53.640625 -71.929688 L 54.011719 -72.300781 L 54.503906 -72.671875 L 54.628906 -72.179688 Z M 18.910156 -70.695312 L 18.539062 -69.953125 L 17.550781 -70.449219 L 17.550781 -71.066406 L 17.671875 -71.4375 L 17.921875 -72.425781 L 18.292969 -72.425781 L 18.785156 -71.929688 L 18.785156 -71.4375 L 18.539062 -71.1875 Z M 58.707031 -68.222656 L 59.199219 -68.46875 L 59.449219 -68.347656 L 59.820312 -68.347656 L 60.191406 -68.839844 L 60.066406 -69.457031 L 60.683594 -70.199219 L 61.054688 -69.707031 L 61.179688 -68.839844 L 60.683594 -68.59375 L 60.808594 -67.730469 L 60.191406 -67.605469 L 59.820312 -67.851562 L 59.695312 -67.976562 L 60.066406 -66.863281 L 60.066406 -66.617188 L 59.820312 -65.875 L 60.4375 -66.121094 L 61.671875 -66.246094 L 62.167969 -66.738281 L 61.917969 -66.988281 L 62.910156 -67.359375 L 63.15625 -67.480469 L 63.28125 -66.617188 L 62.660156 -66 L 62.539062 -65.503906 L 63.03125 -64.640625 L 61.425781 -64.269531 L 60.191406 -64.886719 L 59.695312 -65.378906 L 59.449219 -65.007812 L 59.570312 -65.007812 L 59.695312 -64.144531 L 59.324219 -64.144531 L 58.953125 -63.898438 L 58.707031 -64.640625 L 59.078125 -65.378906 L 58.828125 -66.246094 L 58.707031 -66.617188 L 58.582031 -67.359375 L 58.707031 -67.976562 Z M 16.933594 -68.46875 L 16.4375 -67.730469 L 15.945312 -67.234375 L 15.449219 -67.851562 L 15.574219 -68.71875 L 16.3125 -69.210938 Z M 18.785156 -67.359375 L 19.402344 -67.480469 L 19.15625 -67.730469 L 18.292969 -67.851562 L 18.042969 -67.851562 L 17.550781 -68.222656 L 18.539062 -68.71875 L 18.664062 -68.46875 L 19.15625 -68.839844 L 19.898438 -68.964844 L 20.144531 -68.59375 L 19.773438 -67.480469 L 20.640625 -66.617188 L 19.402344 -66.121094 L 19.28125 -66.492188 Z M 14.832031 -64.761719 L 15.820312 -65.257812 L 16.933594 -65.257812 L 17.550781 -64.761719 L 17.921875 -64.019531 L 17.550781 -64.019531 L 17.550781 -63.898438 L 17.796875 -63.28125 L 17.796875 -62.910156 L 16.933594 -62.910156 L 15.324219 -62.660156 L 14.214844 -63.402344 Z M 64.761719 -61.796875 L 64.515625 -61.550781 L 63.28125 -62.167969 L 63.527344 -63.03125 L 64.269531 -63.402344 L 65.257812 -62.910156 Z M 15.203125 -57.964844 L 14.582031 -57.839844 L 14.214844 -57.59375 L 13.964844 -58.335938 L 13.84375 -59.078125 L 13.347656 -59.570312 L 13.59375 -60.683594 L 14.089844 -61.550781 L 15.574219 -61.179688 L 16.683594 -60.683594 L 16.3125 -60.558594 L 16.4375 -60.3125 L 16.066406 -59.695312 L 15.324219 -59.078125 L 15.078125 -58.582031 L 15.574219 -58.335938 L 17.304688 -58.953125 L 18.292969 -58.210938 L 19.035156 -57.71875 L 19.035156 -57.59375 L 18.785156 -56.851562 L 18.167969 -56.730469 L 17.671875 -55.988281 L 17.671875 -55.492188 L 17.425781 -55.246094 L 17.054688 -55 L 15.820312 -54.011719 L 14.832031 -54.503906 L 14.335938 -55.246094 L 13.71875 -56.480469 L 14.707031 -56.851562 L 15.574219 -56.730469 L 15.574219 -57.964844 Z M 62.660156 -54.257812 L 62.660156 -54.875 L 62.042969 -55.246094 L 62.042969 -54.378906 L 62.539062 -53.761719 L 62.167969 -53.144531 L 61.425781 -52.652344 L 61.179688 -53.144531 L 61.425781 -53.515625 L 60.683594 -54.132812 L 59.078125 -54.628906 L 59.199219 -56.109375 L 59.695312 -56.480469 L 59.820312 -56.730469 L 60.066406 -57.59375 L 60.4375 -57.964844 L 60.066406 -58.335938 L 59.695312 -58.828125 L 60.066406 -59.199219 L 59.820312 -60.191406 L 60.4375 -60.191406 L 61.917969 -59.941406 L 62.785156 -59.324219 L 62.910156 -58.089844 L 62.785156 -57.839844 L 63.15625 -57.59375 L 63.28125 -56.730469 L 62.660156 -56.234375 L 62.660156 -55.121094 L 63.402344 -55.121094 L 63.402344 -54.011719 Z M 16.191406 -56.605469 L 15.695312 -56.730469 L 15.574219 -56.730469 Z M 16.4375 -47.089844 L 16.933594 -47.832031 L 16.191406 -48.199219 L 15.945312 -47.460938 L 15.203125 -48.324219 L 15.574219 -49.066406 L 15.695312 -49.066406 L 16.4375 -48.695312 L 16.191406 -49.5625 L 16.5625 -49.808594 L 16.4375 -50.054688 L 16.683594 -50.300781 L 16.191406 -50.425781 L 14.953125 -51.042969 L 14.953125 -51.539062 L 15.078125 -52.03125 L 15.574219 -52.28125 L 15.820312 -52.773438 L 16.5625 -52.402344 L 16.4375 -52.03125 L 17.425781 -51.660156 L 17.796875 -51.539062 L 17.671875 -50.796875 L 17.921875 -49.929688 L 17.550781 -49.808594 L 17.921875 -48.941406 L 17.425781 -47.582031 L 17.921875 -47.460938 L 17.425781 -46.59375 L 17.796875 -46.347656 L 17.921875 -45.851562 L 16.808594 -45.109375 L 16.4375 -45.851562 L 16.4375 -45.976562 L 16.5625 -46.347656 Z M 61.179688 -50.921875 L 61.550781 -51.539062 L 62.042969 -50.921875 L 62.042969 -50.300781 L 62.414062 -49.4375 L 61.550781 -48.941406 L 61.054688 -49.4375 L 60.808594 -49.191406 L 60.4375 -49.066406 L 60.191406 -48.941406 L 60.066406 -50.179688 L 60.3125 -50.179688 L 61.054688 -49.929688 L 61.179688 -50.300781 L 61.300781 -50.550781 Z M 64.886719 -50.425781 L 64.269531 -50.550781 L 63.28125 -50.671875 L 64.144531 -51.539062 L 65.132812 -50.796875 Z M 59.078125 -49.929688 L 59.820312 -48.941406 L 59.570312 -48.695312 L 59.449219 -48.324219 L 58.828125 -48.078125 L 57.59375 -47.832031 L 56.851562 -48.324219 L 56.605469 -49.191406 L 58.460938 -49.929688 Z M 62.785156 -44.742188 L 61.179688 -44.121094 L 60.558594 -45.109375 L 59.820312 -45.234375 L 59.820312 -45.851562 L 59.695312 -45.359375 L 59.695312 -44.988281 L 59.449219 -44.863281 L 58.828125 -43.875 L 58.828125 -44.121094 L 58.460938 -44 L 57.964844 -44.121094 L 57.46875 -44.492188 L 57.101562 -44 L 56.480469 -44.121094 L 56.234375 -44 L 55.617188 -44.121094 L 54.875 -44.617188 L 54.75 -44.863281 L 54.628906 -45.359375 L 54.875 -46.59375 L 55.863281 -47.089844 L 55.863281 -46.222656 L 55.617188 -45.359375 L 56.109375 -45.359375 L 55.738281 -45.480469 L 56.480469 -45.480469 L 57.222656 -45.605469 L 57.347656 -45.359375 L 57.71875 -46.101562 L 57.964844 -46.222656 L 58.210938 -46.59375 L 58.828125 -46.472656 L 59.449219 -46.71875 L 59.820312 -46.101562 L 59.695312 -46.59375 L 60.929688 -46.347656 L 62.042969 -46.222656 L 62.785156 -45.730469 Z M 53.761719 -43.257812 L 53.019531 -42.640625 L 52.402344 -43.257812 L 52.402344 -43.75 L 53.144531 -44.492188 L 53.886719 -43.382812 Z M 17.304688 -44.121094 L 17.796875 -44.246094 L 17.425781 -43.382812 L 17.304688 -43.132812 L 16.808594 -43.132812 L 16.5625 -43.628906 Z M 23.234375 -39.921875 L 22.863281 -39.054688 L 22.988281 -38.066406 L 22.246094 -38.191406 L 21.011719 -38.3125 L 21.628906 -38.5625 L 21.753906 -38.929688 L 20.886719 -39.671875 L 20.394531 -40.414062 L 19.773438 -41.28125 L 19.402344 -42.515625 L 21.132812 -43.011719 L 21.875 -42.515625 L 22.988281 -41.652344 L 23.359375 -40.785156 Z M 50.921875 -42.144531 L 50.921875 -42.515625 L 51.660156 -42.640625 L 52.15625 -42.761719 L 52.28125 -41.898438 L 51.414062 -41.898438 Z M 53.515625 -40.660156 L 52.773438 -40.539062 L 52.402344 -41.03125 L 52.652344 -41.28125 L 52.898438 -42.019531 L 53.761719 -41.28125 Z M 51.167969 -41.28125 L 51.414062 -40.539062 L 50.550781 -40.539062 L 49.808594 -40.785156 L 49.929688 -41.402344 L 50.179688 -41.773438 Z M 56.480469 -40.292969 L 56.234375 -40.910156 L 56.109375 -41.527344 L 56.730469 -41.527344 L 56.976562 -41.03125 L 57.101562 -40.660156 Z M 52.402344 -39.425781 L 52.402344 -38.4375 L 52.03125 -38.066406 L 50.921875 -38.066406 L 50.796875 -38.4375 L 51.289062 -39.054688 L 51.414062 -40.167969 L 51.910156 -40.539062 Z M 27.066406 -38.191406 L 26.449219 -38.4375 L 25.953125 -38.929688 L 26.941406 -39.425781 L 27.5625 -38.683594 L 28.179688 -38.5625 Z M 17.921875 -38.3125 L 18.539062 -39.300781 L 18.910156 -39.054688 L 18.785156 -38.066406 L 18.664062 -37.695312 Z M 14.582031 -38.191406 L 14.460938 -37.941406 L 14.335938 -39.179688 L 15.324219 -39.179688 L 15.695312 -39.054688 L 16.933594 -38.929688 L 16.808594 -38.683594 L 17.054688 -38.4375 L 17.671875 -37.449219 L 17.796875 -36.953125 L 17.304688 -37.078125 L 16.683594 -37.078125 L 16.191406 -37.820312 L 15.820312 -37.941406 L 15.695312 -38.191406 L 15.324219 -38.066406 Z M 32.132812 -38.066406 L 31.144531 -38.4375 L 31.515625 -39.054688 L 32.382812 -38.929688 L 32.628906 -38.808594 L 32.753906 -38.066406 Z M 43.503906 -35.964844 L 43.628906 -36.335938 L 43.875 -37.203125 L 43.628906 -38.066406 L 44.492188 -37.695312 L 44.863281 -37.820312 L 44.617188 -37.324219 L 45.109375 -36.582031 L 44.742188 -35.71875 L 44.121094 -35.347656 Z M 25.335938 -37.078125 L 25.089844 -37.820312 L 25.953125 -37.941406 L 26.203125 -37.820312 L 26.203125 -36.832031 L 25.707031 -36.582031 Z M 27.808594 -35.71875 L 27.3125 -35.472656 L 26.324219 -35.347656 L 26.203125 -36.089844 L 27.066406 -36.460938 L 27.933594 -36.582031 Z M 14.582031 -35.222656 L 14.335938 -35.59375 L 14.335938 -36.210938 L 14.707031 -36.460938 L 14.953125 -36.460938 L 15.203125 -35.71875 Z M 21.132812 -33.988281 L 20.269531 -34.730469 L 20.269531 -35.472656 L 20.761719 -35.347656 L 21.382812 -35.347656 L 21.628906 -34.851562 Z M 18.042969 -34.359375 L 17.921875 -35.347656 L 18.167969 -35.347656 L 18.664062 -34.851562 L 18.664062 -34.605469 L 18.539062 -34.234375 Z M 19.652344 -32.875 L 18.910156 -33.371094 L 19.15625 -33.742188 L 19.773438 -33.988281 L 20.144531 -33.617188 L 20.640625 -32.875 Z M 45.851562 -33.988281 L 45.976562 -33.863281 L 46.101562 -33.371094 L 45.851562 -33.246094 L 45.109375 -33.371094 L 44.863281 -33.742188 Z M 43.503906 -32.011719 L 43.257812 -31.640625 L 42.761719 -32.628906 L 42.761719 -33.121094 L 43.628906 -32.382812 Z M 20.144531 -30.652344 L 19.773438 -30.527344 L 19.28125 -30.652344 L 19.402344 -31.515625 L 19.527344 -31.761719 L 20.023438 -31.640625 Z M 46.59375 -30.03125 L 45.359375 -29.292969 L 44.246094 -29.539062 L 44.492188 -30.773438 L 45.480469 -31.640625 L 46.71875 -31.144531 Z M 15.695312 -26.820312 L 15.574219 -27.808594 L 15.695312 -27.808594 L 16.3125 -28.054688 L 16.4375 -27.066406 L 15.695312 -27.191406 Z M 51.167969 -26.695312 L 51.167969 -25.832031 L 50.550781 -25.582031 L 49.4375 -25.707031 L 49.929688 -26.695312 L 50.425781 -26.941406 Z M 18.414062 -23.484375 L 17.921875 -22.492188 L 17.179688 -21.753906 L 16.5625 -22.617188 L 16.683594 -23.234375 L 17.179688 -23.605469 Z M 17.550781 -19.898438 L 17.671875 -20.761719 L 18.910156 -21.011719 L 19.527344 -20.394531 L 19.28125 -19.773438 L 18.292969 -19.773438 Z M 14.707031 -19.652344 L 14.335938 -19.402344 L 13.84375 -20.394531 L 14.460938 -20.269531 L 14.953125 -20.023438 L 15.203125 -19.652344 Z M 53.144531 -20.394531 L 53.761719 -20.023438 L 53.640625 -19.15625 L 53.019531 -19.15625 L 52.527344 -19.652344 L 52.402344 -20.269531 Z M 19.898438 -17.054688 L 19.15625 -17.425781 L 19.035156 -18.167969 L 19.773438 -18.539062 L 20.515625 -17.671875 L 20.761719 -17.054688 Z M 51.660156 -18.042969 L 52.28125 -17.921875 L 52.773438 -17.304688 L 51.660156 -16.808594 L 51.042969 -17.425781 L 51.414062 -17.921875 Z M 55.121094 -17.671875 L 54.503906 -16.933594 L 54.378906 -17.054688 L 53.761719 -17.054688 L 53.515625 -17.921875 L 54.011719 -17.921875 Z M 16.933594 -17.054688 L 17.671875 -16.683594 L 17.425781 -15.695312 L 17.054688 -15.449219 L 16.683594 -15.945312 L 16.066406 -16.191406 Z M 56.976562 -13.84375 L 57.101562 -12.855469 L 55.738281 -11.742188 L 54.503906 -12.730469 L 54.132812 -13.59375 L 55.617188 -14.214844 Z M 18.042969 -10.011719 L 17.550781 -9.515625 L 16.4375 -9.515625 L 16.5625 -10.382812 L 17.179688 -10.875 L 18.167969 -10.628906 Z M 17.921875 -6.304688 L 17.304688 -6.179688 L 16.5625 -6.425781 L 16.191406 -7.042969 L 17.425781 -7.292969 L 18.042969 -6.675781 Z M 17.921875 -6.304688 "/></g></g></g><g fill="#fffefe" fill-opacity="1"><g transform="translate(228.151463, 224.249985)"><g><path d="M 63.15625 -4.820312 L 61.917969 -8.15625 L 58.828125 -9.515625 L 54.875 -10.011719 L 52.402344 -10.132812 L 49.4375 -10.011719 L 47.089844 -10.257812 L 44.617188 -9.886719 L 41.652344 -9.886719 L 39.300781 -10.011719 L 36.953125 -9.765625 L 34.605469 -9.886719 L 31.761719 -9.886719 L 28.921875 -9.765625 L 26.449219 -10.132812 L 23.851562 -11 L 22.617188 -13.472656 L 22.742188 -15.945312 L 22.617188 -18.167969 L 22.863281 -20.515625 L 22.617188 -22.863281 L 22.988281 -25.335938 L 22.742188 -27.683594 L 22.863281 -30.15625 L 22.988281 -32.875 L 24.472656 -35.101562 L 26.695312 -36.707031 L 29.042969 -36.089844 L 31.886719 -35.964844 L 33.988281 -36.460938 L 37.695312 -36.210938 L 44.121094 -36.460938 L 48.199219 -36.089844 L 50.550781 -36.832031 L 53.761719 -37.695312 L 54.628906 -41.03125 L 53.886719 -44.742188 L 50.425781 -45.851562 L 46.839844 -46.347656 L 44.121094 -45.976562 L 41.402344 -46.59375 L 39.179688 -46.472656 L 36.460938 -45.976562 L 33.988281 -45.976562 L 31.886719 -46.59375 L 29.167969 -46.101562 L 26.574219 -45.976562 L 23.851562 -47.335938 L 22.742188 -49.683594 L 23.113281 -51.539062 L 22.988281 -54.011719 L 22.742188 -56.851562 L 22.371094 -59.199219 L 22.742188 -61.550781 L 22.617188 -63.773438 L 22.617188 -66.492188 L 22.863281 -68.839844 L 23.976562 -71.3125 L 26.574219 -72.671875 L 28.921875 -72.054688 L 36.582031 -71.929688 L 39.179688 -72.054688 L 41.652344 -71.929688 L 43.628906 -72.179688 L 46.59375 -72.300781 L 48.695312 -72.546875 L 51.289062 -72.546875 L 53.761719 -72.300781 L 57.59375 -72.300781 L 60.558594 -73.539062 L 61.425781 -77.246094 L 60.929688 -80.953125 L 57.46875 -81.941406 L 52.527344 -82.683594 L 48.695312 -82.3125 L 45.851562 -82.4375 L 43.382812 -82.066406 L 41.03125 -82.066406 L 38.683594 -82.4375 L 35.71875 -82.066406 L 33.371094 -82.066406 L 28.179688 -82.558594 L 25.832031 -82.3125 L 23.234375 -82.066406 L 19.773438 -81.941406 L 17.425781 -81.816406 L 13.71875 -81.199219 L 12.234375 -79.347656 L 11.492188 -76.257812 L 11.125 -72.179688 L 11.246094 -70.078125 L 11.246094 -67.234375 L 11.492188 -64.886719 L 11.492188 -62.289062 L 11.246094 -59.941406 L 11.492188 -57.59375 L 11.125 -55 L 11.492188 -52.15625 L 11.125 -49.5625 L 11.246094 -47.582031 L 11.125 -44.988281 L 11.125 -42.640625 L 10.875 -39.921875 L 11 -36.832031 L 11.125 -34.730469 L 11 -32.503906 L 11 -29.910156 L 11.492188 -27.191406 L 11.492188 -25.089844 L 11.246094 -22.492188 L 11.371094 -19.773438 L 11.246094 -17.054688 L 11.492188 -14.460938 L 11.371094 -12.234375 L 11.617188 -9.765625 L 11.246094 -6.054688 L 11.988281 -2.59375 L 13.964844 -1.113281 L 16.808594 0.125 L 20.515625 -0.246094 L 24.59375 0.246094 L 28.054688 0.371094 L 31.886719 -0.371094 L 35.84375 0 L 37.570312 0.246094 L 40.167969 -0.246094 L 42.640625 0.125 L 44.988281 -0.125 L 47.460938 0 L 50.054688 0.496094 L 52.652344 -0.246094 L 54.75 -0.125 L 58.460938 -0.246094 L 62.167969 -1.605469 Z M 21.382812 -75.019531 L 20.269531 -75.144531 L 20.144531 -74.773438 L 19.898438 -74.15625 L 19.402344 -73.785156 L 19.15625 -74.15625 L 18.785156 -73.785156 L 18.292969 -73.660156 L 18.042969 -74.03125 L 17.796875 -75.019531 L 18.292969 -75.390625 L 18.910156 -74.773438 L 19.15625 -75.515625 L 18.785156 -76.007812 L 19.652344 -75.886719 L 20.023438 -75.886719 L 20.515625 -76.132812 L 20.886719 -76.628906 L 21.503906 -77.492188 L 21.628906 -77.738281 L 22.125 -79.097656 L 23.359375 -80.089844 L 24.472656 -79.347656 L 24.71875 -77.863281 L 23.976562 -77.617188 L 23.359375 -77 L 22.988281 -75.390625 L 22 -74.648438 Z M 40.660156 -78.976562 L 39.921875 -79.222656 L 39.921875 -79.839844 L 40.660156 -79.71875 L 41.527344 -79.46875 L 41.28125 -78.851562 Z M 54.257812 -76.503906 L 52.773438 -77.246094 L 53.390625 -78.605469 L 54.503906 -78.851562 L 55.738281 -78.109375 L 55.246094 -77.246094 Z M 17.304688 -77.246094 L 16.808594 -78.109375 L 17.054688 -78.234375 L 17.796875 -78.480469 L 18.042969 -78.726562 L 19.035156 -77.738281 L 18.167969 -77.246094 L 18.042969 -77.492188 L 17.796875 -77.863281 Z M 46.59375 -76.378906 L 45.480469 -76.503906 L 45.480469 -78.234375 L 46.71875 -78.605469 L 48.324219 -77.988281 L 48.324219 -77.121094 Z M 52.773438 -77.617188 L 51.167969 -77.617188 L 51.539062 -78.234375 L 52.28125 -78.234375 Z M 30.402344 -76.132812 L 30.28125 -76.75 L 30.15625 -77.246094 L 30.652344 -77.617188 L 31.023438 -77.367188 L 31.390625 -76.378906 Z M 42.761719 -76.378906 L 42.515625 -76.378906 L 42.144531 -77.367188 L 43.382812 -77.617188 L 43.75 -77.492188 L 43.503906 -76.628906 Z M 14.953125 -76.378906 L 14.335938 -76.257812 L 13.964844 -76.875 L 14.832031 -77.246094 L 15.449219 -77.367188 L 15.324219 -76.503906 Z M 44.246094 -74.773438 L 43.875 -75.515625 L 44 -75.886719 L 44.492188 -76.257812 L 44.988281 -75.761719 L 44.742188 -74.898438 Z M 15.695312 -73.910156 L 15.324219 -74.402344 L 15.449219 -74.773438 L 15.820312 -74.773438 L 16.5625 -74.527344 L 16.5625 -73.785156 Z M 18.664062 -69.953125 L 17.550781 -70.078125 L 17.425781 -70.941406 L 17.550781 -71.683594 L 17.921875 -71.929688 L 18.664062 -72.917969 L 18.664062 -72.546875 L 18.539062 -71.683594 L 18.785156 -70.820312 L 18.785156 -70.078125 Z M 14.707031 -69.953125 L 14.335938 -70.570312 L 14.707031 -71.3125 L 15.078125 -70.941406 L 15.078125 -70.449219 Z M 15.574219 -62.539062 L 14.953125 -63.527344 L 14.582031 -64.640625 L 15.945312 -65.378906 L 17.054688 -64.390625 L 17.796875 -64.019531 L 17.671875 -63.527344 L 17.671875 -62.785156 L 16.683594 -62.414062 Z M 14.832031 -57.71875 L 13.84375 -58.210938 L 13.84375 -58.828125 L 13.71875 -59.324219 L 13.347656 -60.558594 L 14.089844 -61.425781 L 15.695312 -61.300781 L 16.4375 -61.054688 L 16.3125 -60.808594 L 16.3125 -60.066406 L 16.066406 -59.570312 L 15.574219 -58.828125 L 15.574219 -58.460938 Z M 15.574219 -53.761719 L 14.582031 -54.378906 L 14.335938 -55.246094 L 13.964844 -55.617188 L 13.59375 -56.976562 L 14.582031 -57.46875 L 15.324219 -56.730469 L 15.945312 -56.480469 L 15.945312 -57.347656 L 15.695312 -57.964844 L 17.179688 -58.953125 L 18.414062 -58.460938 L 18.664062 -57.222656 L 18.167969 -56.359375 L 19.15625 -56.109375 L 18.910156 -55.863281 L 18.664062 -55.121094 L 18.910156 -54.257812 L 18.292969 -54.257812 L 17.671875 -54.503906 L 17.796875 -54.75 L 17.921875 -55.371094 L 17.550781 -55 L 16.808594 -54.503906 Z M 17.425781 -48.941406 L 16.933594 -49.4375 L 16.191406 -49.066406 L 16.191406 -48.449219 L 16.683594 -48.324219 L 15.945312 -47.707031 L 15.324219 -48.324219 L 15.078125 -48.695312 L 15.449219 -49.5625 L 15.945312 -50.300781 L 16.3125 -49.808594 L 16.933594 -50.179688 L 16.933594 -50.550781 L 16.5625 -51.414062 L 16.808594 -51.539062 L 16.683594 -51.910156 L 15.820312 -51.785156 L 15.574219 -51.910156 L 15.203125 -52.28125 L 15.695312 -52.773438 L 16.4375 -52.652344 L 16.683594 -52.652344 L 17.304688 -52.527344 L 17.671875 -52.527344 L 18.042969 -51.414062 L 18.167969 -51.289062 L 17.550781 -50.179688 L 17.425781 -49.808594 L 18.042969 -49.929688 L 18.292969 -50.550781 L 19.035156 -49.929688 L 18.910156 -49.3125 L 18.414062 -49.066406 L 17.921875 -49.3125 L 17.921875 -49.191406 Z M 17.425781 -43.132812 L 16.4375 -42.761719 L 16.191406 -43.257812 L 16.5625 -42.144531 L 16.191406 -41.773438 L 15.945312 -41.773438 L 15.078125 -42.390625 L 15.449219 -42.515625 L 15.695312 -43.011719 L 15.574219 -43.875 L 15.695312 -44 L 16.4375 -43.75 L 16.933594 -43.75 L 16.5625 -44.121094 L 16.5625 -45.480469 L 16.4375 -46.347656 L 16.808594 -46.71875 L 16.4375 -47.089844 L 17.179688 -47.582031 L 17.671875 -47.582031 L 17.425781 -46.71875 L 17.921875 -46.347656 L 17.921875 -45.359375 L 17.550781 -45.359375 L 17.550781 -43.503906 L 18.042969 -43.382812 Z M 14.953125 -46.839844 L 14.214844 -46.472656 L 13.84375 -47.089844 L 14.832031 -47.460938 Z M 29.664062 -41.652344 L 28.179688 -42.640625 L 27.933594 -43.628906 L 29.539062 -44.492188 L 30.527344 -43.628906 L 30.402344 -42.144531 Z M 22.371094 -37.820312 L 21.753906 -38.066406 L 21.503906 -38.929688 L 21.011719 -39.425781 L 20.144531 -39.671875 L 20.144531 -40.042969 L 20.394531 -40.539062 L 19.402344 -41.03125 L 19.402344 -42.269531 L 20.886719 -42.886719 L 21.875 -43.132812 L 21.382812 -44 L 21.875 -44.246094 L 22.125 -43.628906 L 22.246094 -43.132812 L 22.617188 -42.886719 L 22.617188 -42.390625 L 23.359375 -43.257812 L 23.484375 -42.640625 L 23.605469 -42.269531 L 23.359375 -41.652344 L 22.863281 -40.785156 L 23.234375 -40.042969 L 22.617188 -39.054688 L 22.863281 -38.683594 L 22.371094 -38.5625 Z M 31.761719 -41.402344 L 31.390625 -41.898438 L 31.269531 -42.515625 L 32.011719 -42.515625 L 32.628906 -42.761719 L 32.257812 -41.898438 Z M 15.574219 -40.539062 L 14.214844 -40.539062 L 13.84375 -41.402344 L 14.707031 -41.402344 L 15.324219 -41.15625 Z M 32.132812 -39.054688 L 31.269531 -39.179688 L 31.515625 -40.042969 L 32.011719 -40.167969 L 32.628906 -40.292969 Z M 14.582031 -35.101562 L 14.089844 -35.84375 L 14.335938 -36.210938 L 14.214844 -37.324219 L 14.582031 -37.570312 L 14.707031 -37.820312 L 15.078125 -37.695312 L 14.953125 -37.203125 L 15.078125 -36.335938 L 15.449219 -35.71875 Z M 16.933594 -36.832031 L 16.066406 -37.078125 L 16.4375 -37.695312 L 16.808594 -37.695312 L 17.796875 -37.820312 L 17.921875 -36.832031 Z M 23.605469 -36.953125 L 22.742188 -36.707031 L 22.863281 -37.449219 L 24.101562 -37.820312 L 23.851562 -37.324219 Z M 20.761719 -34.234375 L 20.394531 -34.605469 L 20.269531 -34.851562 L 20.761719 -35.222656 L 21.503906 -34.976562 L 21.257812 -34.605469 Z M 14.832031 -33.246094 L 14.214844 -33.121094 L 13.964844 -34.113281 L 15.203125 -34.605469 L 15.324219 -33.988281 L 15.324219 -33.371094 Z M 17.425781 -32.753906 L 16.933594 -33.492188 L 17.054688 -34.234375 L 17.179688 -34.113281 L 17.921875 -34.113281 L 17.671875 -33.371094 Z M 19.773438 -32.628906 L 18.910156 -32.875 L 18.910156 -33.742188 L 19.652344 -34.234375 L 20.023438 -33.863281 L 20.269531 -32.875 Z M 17.304688 -28.300781 L 16.4375 -28.671875 L 17.179688 -29.042969 L 17.671875 -29.167969 L 17.921875 -28.550781 Z M 14.832031 -22.988281 L 13.964844 -23.359375 L 14.335938 -23.851562 L 14.214844 -24.222656 L 13.347656 -24.71875 L 13.71875 -25.707031 L 15.203125 -27.191406 L 15.078125 -27.683594 L 15.820312 -28.300781 L 16.5625 -27.933594 L 16.4375 -26.941406 L 16.683594 -26.324219 L 16.191406 -25.707031 L 16.066406 -25.832031 L 15.945312 -24.84375 L 15.078125 -24.101562 L 15.449219 -23.976562 L 15.203125 -23.730469 Z M 17.304688 -21.875 L 15.945312 -22.125 L 15.820312 -22.988281 L 16.808594 -23.976562 L 17.671875 -23.484375 L 17.921875 -21.875 Z M 17.054688 -16.066406 L 16.5625 -15.820312 L 16.3125 -16.808594 L 17.304688 -16.808594 L 17.921875 -16.5625 L 17.921875 -16.191406 Z M 18.539062 -11.988281 L 17.054688 -12.605469 L 16.808594 -13.71875 L 18.910156 -14.460938 L 19.402344 -13.59375 L 19.527344 -12.730469 Z M 19.527344 -8.402344 L 18.414062 -8.773438 L 18.167969 -10.628906 L 19.527344 -11.125 L 20.394531 -10.132812 L 20.761719 -8.773438 Z M 17.179688 -9.765625 L 16.808594 -10.011719 L 16.808594 -10.132812 L 17.425781 -10.628906 L 17.550781 -10.382812 L 17.671875 -9.640625 Z M 27.066406 -6.054688 L 25.707031 -6.425781 L 25.832031 -7.664062 L 27.191406 -7.910156 L 28.179688 -7.414062 L 28.671875 -6.550781 Z M 22 -5.808594 L 21.382812 -6.054688 L 21.753906 -6.550781 L 21.753906 -7.167969 L 22.742188 -6.796875 L 22.617188 -5.808594 Z M 17.054688 -6.054688 L 16.3125 -5.933594 L 16.4375 -7.042969 L 16.808594 -6.921875 L 17.425781 -6.675781 L 18.042969 -5.933594 Z M 41.527344 -6.054688 L 40.910156 -6.054688 L 41.15625 -6.796875 L 41.898438 -7.042969 L 42.390625 -7.042969 L 42.515625 -6.304688 Z M 51.660156 -6.179688 L 51.414062 -6.179688 L 51.414062 -6.796875 L 51.785156 -7.042969 L 52.652344 -6.796875 L 52.652344 -6.304688 Z M 51.660156 -6.179688 "/></g></g></g><g fill="#fffefe" fill-opacity="1"><g transform="translate(296.988861, 224.249985)"><g><path d="M 70.941406 -1.730469 L 71.558594 -4.203125 L 71.3125 -7.539062 L 70.695312 -10.257812 L 69.953125 -13.101562 L 67.976562 -17.796875 L 67.234375 -19.527344 L 66.863281 -22 L 65.75 -24.59375 L 64.886719 -26.941406 L 64.269531 -29.414062 L 63.402344 -31.761719 L 62.660156 -33.863281 L 61.917969 -36.210938 L 61.179688 -38.929688 L 60.683594 -41.15625 L 59.820312 -43.628906 L 58.460938 -46.101562 L 58.210938 -48.324219 L 57.46875 -50.300781 L 56.109375 -52.898438 L 55.863281 -55.371094 L 54.75 -57.347656 L 54.378906 -60.191406 L 53.390625 -62.539062 L 52.652344 -64.886719 L 51.785156 -67.109375 L 51.167969 -69.335938 L 50.550781 -71.808594 L 49.5625 -75.269531 L 46.964844 -79.222656 L 44.121094 -81.324219 L 42.019531 -82.1875 L 38.808594 -82.808594 L 35.347656 -82.3125 L 33.742188 -81.570312 L 32.132812 -80.335938 L 30.03125 -78.109375 L 29.042969 -75.269531 L 27.3125 -71.929688 L 26.941406 -69.457031 L 26.203125 -66.988281 L 25.707031 -65.007812 L 24.347656 -62.167969 L 23.976562 -59.820312 L 22.742188 -57.59375 L 22.371094 -55.121094 L 21.382812 -53.019531 L 20.640625 -50.796875 L 19.898438 -48.199219 L 19.28125 -45.605469 L 17.550781 -40.910156 L 16.3125 -38.5625 L 15.820312 -36.089844 L 14.953125 -33.863281 L 14.335938 -31.269531 L 13.71875 -28.921875 L 12.855469 -26.941406 L 12.234375 -24.222656 L 10.875 -21.628906 L 10.382812 -19.527344 L 9.765625 -17.425781 L 9.144531 -14.832031 L 8.15625 -12.730469 L 7.414062 -10.257812 L 6.550781 -7.042969 L 6.054688 -3.707031 L 7.539062 -1.359375 L 11.371094 0.496094 L 14.832031 -0.371094 L 16.683594 -2.964844 L 17.671875 -6.921875 L 18.292969 -8.652344 L 19.402344 -11 L 20.144531 -13.222656 L 20.640625 -15.574219 L 21.382812 -18.167969 L 21.628906 -20.515625 L 23.851562 -22.742188 L 27.066406 -24.347656 L 30.773438 -24.222656 L 34.480469 -24.347656 L 37.203125 -24.472656 L 39.671875 -24.222656 L 42.144531 -24.472656 L 46.347656 -24.222656 L 48.449219 -24.347656 L 52.898438 -22.742188 L 55 -20.640625 L 55.617188 -18.414062 L 56.605469 -16.066406 L 57.101562 -13.71875 L 57.347656 -11.371094 L 58.210938 -9.269531 L 59.199219 -6.550781 L 60.558594 -3.585938 L 62.289062 -0.742188 L 65.875 0.496094 L 68.71875 0.246094 Z M 41.898438 -74.773438 L 41.402344 -75.144531 L 41.15625 -75.761719 L 40.785156 -76.257812 L 39.921875 -76.503906 L 40.539062 -77.863281 L 41.898438 -78.234375 L 43.257812 -77.492188 L 42.886719 -76.75 L 42.144531 -76.378906 L 42.390625 -75.636719 L 42.144531 -74.773438 Z M 37.820312 -75.886719 L 37.078125 -76.132812 L 37.449219 -76.875 L 37.449219 -77.492188 L 38.3125 -77.367188 L 38.5625 -76.132812 Z M 44.371094 -75.761719 L 43.628906 -76.378906 L 43.628906 -77.367188 L 44.246094 -77.246094 L 44.988281 -76.628906 Z M 33.246094 -74.648438 L 32.257812 -75.144531 L 32.628906 -76.132812 L 33.246094 -76.503906 L 33.246094 -75.761719 L 33.617188 -75.761719 L 34.359375 -75.886719 L 34.976562 -75.636719 L 34.976562 -75.269531 L 34.359375 -75.144531 L 33.863281 -75.019531 L 33.742188 -75.144531 Z M 39.054688 -74.898438 L 38.683594 -75.019531 L 38.4375 -75.886719 L 39.300781 -76.378906 L 39.921875 -76.007812 L 39.796875 -75.144531 Z M 43.011719 -71.1875 L 42.390625 -71.4375 L 42.269531 -71.808594 L 42.390625 -72.179688 L 42.640625 -73.042969 L 43.875 -73.910156 L 45.109375 -72.796875 L 45.851562 -71.683594 L 44.121094 -70.941406 Z M 41.402344 -72.300781 L 41.28125 -72.671875 L 41.03125 -73.660156 L 41.773438 -73.785156 L 42.515625 -73.289062 L 42.144531 -72.546875 Z M 33.121094 -71.3125 L 32.132812 -71.808594 L 32.132812 -72.179688 L 32.011719 -72.300781 L 31.390625 -72.054688 L 31.023438 -72.300781 L 31.269531 -73.414062 L 31.390625 -73.539062 L 32.132812 -72.917969 L 32.753906 -72.671875 L 33.246094 -72.671875 L 33.863281 -72.054688 Z M 32.503906 -33.492188 L 29.785156 -33.371094 L 27.808594 -34.851562 L 27.191406 -37.078125 L 28.179688 -39.179688 L 28.425781 -41.773438 L 29.539062 -43.875 L 30.527344 -46.59375 L 31.144531 -48.695312 L 31.761719 -51.414062 L 32.257812 -53.886719 L 32.628906 -55.617188 L 33.742188 -57.964844 L 34.234375 -60.929688 L 35.347656 -63.03125 L 35.84375 -65.132812 L 36.582031 -67.976562 L 37.449219 -70.695312 L 38.191406 -72.917969 L 39.671875 -70.695312 L 40.292969 -67.730469 L 40.910156 -65.628906 L 41.652344 -63.15625 L 42.640625 -60.558594 L 43.75 -56.976562 L 44.988281 -53.640625 L 45.730469 -51.042969 L 45.730469 -48.820312 L 46.59375 -46.472656 L 48.570312 -41.773438 L 49.066406 -39.054688 L 49.683594 -37.324219 L 49.3125 -35.101562 L 46.964844 -33.492188 L 44.863281 -33.742188 L 42.515625 -33.988281 L 39.921875 -33.492188 L 37.078125 -33.742188 L 34.851562 -33.863281 Z M 46.59375 -70.078125 L 46.101562 -70.199219 L 46.347656 -70.941406 L 46.839844 -70.695312 L 46.964844 -70.570312 Z M 31.640625 -68.839844 L 32.503906 -69.089844 L 32.132812 -69.828125 L 33.121094 -69.828125 L 33.617188 -69.582031 L 33.617188 -69.210938 L 33.371094 -68.59375 L 32.503906 -68.59375 L 32.628906 -67.359375 L 31.761719 -66.988281 L 31.144531 -67.480469 L 31.023438 -68.222656 L 30.28125 -68.59375 L 29.539062 -68.71875 L 30.03125 -69.582031 L 30.28125 -69.953125 L 31.023438 -69.707031 L 31.515625 -69.335938 Z M 46.59375 -66.246094 L 45.605469 -66.863281 L 45.605469 -66.988281 L 46.347656 -67.480469 L 45.605469 -67.605469 L 45.851562 -68.59375 L 46.222656 -68.839844 L 47.460938 -69.089844 L 47.335938 -67.976562 L 46.964844 -67.480469 L 47.460938 -67.234375 L 47.335938 -66.371094 Z M 44.371094 -66.246094 L 43.132812 -66.492188 L 43.132812 -67.109375 L 43.628906 -67.730469 L 43.628906 -68.59375 L 44.121094 -68.964844 L 45.109375 -68.46875 L 44.617188 -67.730469 L 44.742188 -67.359375 L 44.742188 -66.738281 Z M 31.761719 -63.898438 L 31.515625 -64.144531 L 31.269531 -64.269531 L 31.269531 -65.132812 L 31.144531 -65.875 L 30.527344 -65.378906 L 29.664062 -64.761719 L 29.664062 -64.886719 L 29.539062 -63.898438 L 28.425781 -64.144531 L 28.796875 -65.257812 L 28.054688 -65.75 L 27.4375 -66.863281 L 29.042969 -67.359375 L 30.402344 -67.109375 L 31.023438 -66.492188 L 32.132812 -66.121094 L 32.011719 -65.007812 L 32.132812 -64.761719 L 32.257812 -63.773438 Z M 45.359375 -63.773438 L 44.371094 -64.019531 L 44.492188 -64.761719 L 44.988281 -65.257812 L 44.617188 -65.75 L 45.109375 -66.246094 L 46.222656 -65.132812 L 45.851562 -64.515625 L 46.222656 -63.773438 Z M 47.953125 -65.132812 L 47.089844 -65.378906 L 47.089844 -65.503906 L 47.832031 -66.121094 L 48.570312 -65.875 L 48.199219 -65.007812 Z M 30.28125 -62.539062 L 29.785156 -62.660156 L 29.785156 -63.28125 L 30.402344 -64.019531 L 31.269531 -63.648438 L 31.144531 -62.910156 Z M 29.167969 -61.425781 L 28.921875 -61.671875 L 28.671875 -62.414062 L 29.414062 -62.785156 L 29.785156 -62.042969 L 30.28125 -61.425781 Z M 48.078125 -60.066406 L 46.964844 -60.3125 L 47.089844 -60.929688 L 47.582031 -61.425781 L 47.210938 -62.289062 L 47.582031 -62.167969 L 48.078125 -62.167969 L 48.820312 -62.289062 L 49.191406 -62.785156 L 49.191406 -61.917969 L 49.5625 -61.300781 L 48.941406 -61.179688 L 48.695312 -61.550781 L 48.324219 -61.550781 L 48.449219 -61.179688 L 48.449219 -60.066406 Z M 49.191406 -55.121094 L 48.570312 -55.492188 L 48.324219 -55.492188 L 47.582031 -54.75 L 46.964844 -55.246094 L 46.964844 -55.988281 L 47.707031 -56.480469 L 48.449219 -56.234375 L 48.820312 -56.480469 L 48.941406 -57.347656 L 48.820312 -57.839844 L 48.820312 -59.570312 L 49.5625 -60.191406 L 49.683594 -61.054688 L 50.550781 -61.179688 L 51.042969 -60.929688 L 50.796875 -60.191406 L 50.671875 -60.066406 L 51.660156 -59.695312 L 51.660156 -58.582031 L 51.042969 -57.964844 L 51.785156 -57.347656 L 52.03125 -56.480469 L 51.414062 -56.359375 L 50.921875 -56.851562 L 50.796875 -57.222656 L 50.179688 -57.59375 L 49.808594 -57.347656 L 49.3125 -56.730469 L 49.808594 -55.988281 L 49.5625 -55.492188 Z M 47.582031 -57.347656 L 47.210938 -58.335938 L 47.582031 -59.199219 L 48.199219 -58.335938 L 48.078125 -57.46875 Z M 29.414062 -56.480469 L 28.921875 -56.851562 L 28.550781 -57.71875 L 29.292969 -57.839844 L 30.03125 -56.976562 L 29.785156 -56.730469 Z M 24.222656 -52.652344 L 23.359375 -52.898438 L 23.851562 -53.515625 L 24.472656 -54.132812 L 24.964844 -53.640625 L 25.335938 -52.773438 Z M 51.660156 -51.167969 L 51.289062 -51.910156 L 50.796875 -53.019531 L 50.796875 -53.390625 L 51.660156 -53.640625 L 51.910156 -53.390625 L 52.03125 -53.019531 L 52.15625 -52.15625 L 52.527344 -51.785156 Z M 26.820312 -50.300781 L 26.449219 -50.300781 L 26.449219 -51.167969 L 26.574219 -51.414062 L 26.941406 -50.796875 L 27.4375 -49.929688 Z M 22.863281 -48.695312 L 22.617188 -49.3125 L 22.617188 -49.929688 L 23.113281 -50.054688 L 23.359375 -50.054688 L 23.605469 -49.683594 L 24.71875 -50.425781 L 24.84375 -49.808594 L 25.210938 -49.066406 L 24.71875 -48.941406 L 24.472656 -47.953125 L 24.222656 -47.832031 L 23.605469 -47.832031 L 23.484375 -48.449219 L 24.101562 -48.941406 L 23.730469 -49.3125 Z M 51.289062 -47.582031 L 51.167969 -47.707031 L 50.796875 -48.449219 L 51.539062 -49.3125 L 52.28125 -49.066406 L 51.660156 -48.199219 Z M 54.257812 -46.472656 L 53.269531 -46.59375 L 53.640625 -47.335938 L 53.640625 -47.832031 L 53.515625 -48.570312 L 54.011719 -49.066406 L 54.628906 -48.820312 L 54.503906 -47.582031 L 54.875 -47.210938 L 54.628906 -46.59375 Z M 50.179688 -45.109375 L 49.4375 -45.480469 L 49.5625 -46.59375 L 50.550781 -46.472656 L 51.042969 -45.730469 L 51.660156 -45.480469 L 52.15625 -45.359375 L 52.15625 -45.234375 L 52.28125 -46.347656 L 53.269531 -45.851562 L 53.390625 -45.359375 L 53.390625 -45.109375 L 53.515625 -45.109375 L 53.886719 -45.359375 L 54.503906 -45.359375 L 54.875 -44.617188 L 54.011719 -44.246094 L 53.515625 -44.121094 L 53.019531 -44.246094 L 52.773438 -43.875 L 52.15625 -44.246094 L 51.289062 -43.628906 L 50.550781 -45.109375 Z M 22.246094 -43.011719 L 21.628906 -42.886719 L 21.628906 -43.628906 L 21.257812 -43.75 L 21.011719 -44.617188 L 21.753906 -45.480469 L 22.371094 -44.492188 L 22.617188 -43.875 L 22.246094 -43.875 L 22.371094 -43.382812 Z M 56.480469 -41.402344 L 55.988281 -41.773438 L 56.109375 -42.269531 L 56.359375 -42.515625 L 56.730469 -42.144531 L 56.976562 -41.652344 Z M 55.246094 -40.414062 L 54.875 -40.167969 L 54.503906 -41.28125 L 55.492188 -41.527344 L 55.988281 -41.03125 L 55.617188 -40.167969 Z M 52.773438 -37.820312 L 51.289062 -38.5625 L 51.539062 -39.671875 L 53.144531 -40.414062 L 54.257812 -39.550781 L 54.378906 -39.054688 L 54.75 -38.929688 L 54.628906 -38.4375 L 53.515625 -37.820312 Z M 21.628906 -37.941406 L 21.132812 -37.941406 L 21.011719 -39.179688 L 21.753906 -39.054688 L 22.617188 -38.929688 L 22.617188 -38.4375 Z M 21.011719 -34.113281 L 19.773438 -34.480469 L 20.023438 -35.101562 L 20.394531 -35.84375 L 21.382812 -35.101562 Z M 57.59375 -33.863281 L 56.730469 -34.359375 L 57.101562 -35.347656 L 57.964844 -35.472656 L 58.089844 -35.472656 L 58.210938 -34.730469 Z M 55.121094 -31.515625 L 54.503906 -31.761719 L 54.75 -32.382812 L 54.875 -33.121094 L 54.75 -34.113281 L 55.246094 -34.113281 L 55.492188 -33.246094 L 55.738281 -33.246094 L 55.738281 -32.503906 L 55.863281 -31.761719 Z M 21.753906 -33 L 21.011719 -33.742188 L 21.628906 -33.742188 L 22.371094 -33.617188 L 22.371094 -33.492188 Z M 16.933594 -30.527344 L 16.066406 -30.402344 L 16.4375 -31.144531 L 16.683594 -31.390625 L 17.796875 -31.390625 L 17.425781 -30.773438 Z M 24.59375 -30.15625 L 23.730469 -31.269531 L 24.222656 -31.390625 L 24.84375 -31.023438 L 24.964844 -30.652344 Z M 60.191406 -29.292969 L 59.324219 -29.664062 L 59.078125 -30.03125 L 60.4375 -31.144531 L 60.683594 -30.898438 L 60.808594 -29.539062 Z M 35.472656 -29.292969 L 34.605469 -29.539062 L 35.101562 -29.910156 L 35.347656 -30.898438 L 35.84375 -30.402344 L 35.84375 -29.664062 Z M 55.371094 -29.167969 L 54.257812 -29.664062 L 54.132812 -30.402344 L 54.875 -30.898438 L 56.359375 -30.28125 L 55.988281 -29.910156 Z M 20.640625 -29.042969 L 19.773438 -29.539062 L 20.394531 -29.910156 L 20.761719 -30.527344 L 21.132812 -30.03125 L 21.503906 -29.167969 Z M 18.042969 -28.796875 L 17.550781 -29.167969 L 17.671875 -29.910156 L 18.167969 -30.402344 L 18.910156 -30.402344 L 19.035156 -29.167969 Z M 57.839844 -29.292969 L 56.730469 -29.414062 L 56.730469 -30.402344 L 57.839844 -30.402344 L 57.964844 -30.15625 L 57.964844 -29.910156 Z M 25.210938 -27.933594 L 24.71875 -28.179688 L 24.472656 -29.414062 L 25.832031 -29.785156 L 26.820312 -29.167969 L 26.324219 -28.425781 Z M 30.527344 -27.808594 L 30.03125 -28.300781 L 30.03125 -28.671875 L 30.28125 -29.167969 L 31.269531 -28.550781 L 31.023438 -28.054688 Z M 51.539062 -28.179688 L 51.042969 -27.933594 L 50.550781 -28.796875 L 51.660156 -28.921875 L 51.910156 -28.921875 Z M 59.078125 -26.820312 L 58.460938 -27.3125 L 58.335938 -27.933594 L 58.460938 -27.933594 L 59.449219 -27.5625 L 59.324219 -26.574219 Z M 16.808594 -25.335938 L 16.5625 -25.582031 L 16.4375 -26.574219 L 16.933594 -27.191406 L 17.425781 -26.695312 L 16.933594 -25.832031 Z M 13.347656 -18.910156 L 12.730469 -19.527344 L 12.855469 -20.144531 L 13.347656 -20.761719 L 13.964844 -19.898438 L 14.214844 -19.28125 Z M 15.820312 -18.292969 L 14.953125 -18.042969 L 15.078125 -18.539062 L 15.695312 -19.15625 L 16.191406 -18.910156 L 16.4375 -18.414062 Z M 13.59375 -11.742188 L 11.492188 -12.605469 L 11.742188 -13.964844 L 12.855469 -14.089844 L 14.089844 -13.347656 L 14.832031 -12.234375 Z M 59.820312 -11.742188 L 59.449219 -11.742188 L 59.820312 -12.730469 L 60.191406 -13.101562 L 60.929688 -12.976562 L 60.808594 -12.359375 Z M 65.378906 -10.503906 L 64.144531 -11.125 L 64.761719 -11.492188 L 65.132812 -11.863281 L 65.257812 -11.492188 L 65.628906 -11.125 Z M 65.378906 -10.503906 "/></g></g></g></svg>